<svg id="Layer_1" xmlns="http://www.w3.org/2000/svg" xmlns:xlink="http://www.w3.org/1999/xlink" viewBox="0 0 500 500"><style>.st0{clip-path:url(#SVGID_2_);} .st1{fill:#898989;} .st2{fill:#EA3554;} .st3{fill:#E0B1C5;} .st4{fill:#FFFFFF;} .st5{fill:#EAC3D6;}</style><defs><path id="SVGID_1_" d="M0 0h500v500H0z"/></defs><clipPath id="SVGID_2_"><use xlink:href="#SVGID_1_" overflow="visible"/></clipPath><g class="st0"><path class="st1" d="M192.7 161.7c-12.3-1-24.6-1-36.9 0h-.3v-12.1h37.2v12.1zm25.9-5.7l-4.7 4.1v13.1L232 163zm-102.2 7.3l17.6 7.6-2.1-14.9zm53.4-115.7l6.8 2.6c2.9 1.1 4.8 3.9 4.8 7v61.3h11.4V55.3c0-6.1-4.9-11-11-11h-.4l-11.6 3.3z"/><circle class="st1" cx="155" cy="135.4" r="2.3"/><circle class="st1" cx="192.1" cy="135.4" r="2.3"/><path d="M113.5 164.1c-1 0-1.9-.6-2.3-1.5l-11.9-28.7c-.5-1.2.1-2.7 1.3-3.2 47-19.5 99.8-19.5 146.9 0 1.2.5 1.8 2 1.3 3.2L237 162.6c-.5 1.2-2 1.8-3.2 1.3-38.2-15.9-81.1-15.9-119.3 0-.3.1-.7.2-1 .2zm60.6-17c20.3 0 40.4 3.9 59.3 11.4l10-24.2c-44.5-17.7-94.1-17.7-138.6 0l10 24.2c18.8-7.5 39-11.4 59.3-11.4z"/><path d="M136.7 134c.6 1.9 2.2 1.3 4.7 1.3.7.1 1.4.3 2 .6 2.6.6 4.9 7.2 2 9.4-3.9 2.9-10.3 3.3-11.4-1.5.1-1.2.9-2.3 2.1-2.6 1.6 0 2 1.5 3.9 1.4.2 0 1.9-.2 1.9-1.1-1-3.8-4.9-1.1-7-2.9h-1.2c-.7-1.4-1.3-2-1.8-3.2-.1-1.3.1-2.6.6-3.9 1.1-1.6 2.7-2.8 4.4-3.5 2.6-.7 5.6-.2 7.3 2.1.6 1.2.1 2.6-1.1 3.2l-.2.1c-2.1-.2-5.1-2-6.2.6zm37.2-9.5c.5.1.9.2 1.4.3 1 1.6 1.4 4 2.4 5.9 1.1 1.8 2 3.8 2.6 5.8.8 1.9 2.4 2.8 2.3 5.4-.6.8-1 1.7-2.3 1.7-1.6 0-1.9-1.7-2.7-2.3-2.4-.1-4.8.4-6.9 0-1.5.6-1.5 2.3-3.2 2.3-1.1.1-2.1-.7-2.2-1.8v-.1c.8-3.3 2.7-5.6 3.2-9 1.4-2.2 2.1-4.9 3.4-7.3.4-.2.4-.9.8-.9h1.2zm-1.4 12c1.4.2 1.6.5 1.6 0 1.1-.9-.1-2.4-.2-2.5-1.1 0-1.5 1.5-1.4 2.5zm42.8 4.6c-2.3.1-2.5 3.8-5.3 4-2.4-.6-1.7-3.6-3.4-5.3-1.1 2.3-.3 7.2-3.9 6.5-.6-.1-.7-.4-1-.8-.2-.4-.4-.8-.5-1.3.2-4.5 1.8-9.4 2.8-14 .3-.6.7-1.1 1.2-1.4.5 0 .8-.2 1.3-.1 2.2.8 2.2 2.6 2.9 4.5.7 1.6.6 3.4 2 5.2.6-1.5 2.4-2.6 3.3-4 1.4-1 2.7-2.1 3.9-3.4.3.1.6-.3.8-.2.1 0 .1-.1.3-.1 1 .1 1.9.9 2.1 1.9-1 5.4-2.2 10-3.2 15.2-.2 1-1.2 1.7-2.2 1.6l-.4-.1c-3.2-.9-.7-5.4-.7-8.2zM134 175.6c-.4 0-.8-.1-1.2-.3l-20.5-11.5c-1.2-.7-1.5-2.2-.8-3.4.7-1.1 2.1-1.5 3.2-.9l20.5 11.5c1.2.7 1.6 2.2.9 3.3-.4.8-1.2 1.3-2.1 1.3z"/><path d="M134 175.6H92.3c-1.4 0-2.4-1.1-2.4-2.5 0-.5.1-.9.4-1.3L98 160l-7.7-11.8c-.7-1.1-.4-2.7.7-3.4.4-.3.8-.4 1.3-.4h13.1c1.3-.1 2.5.9 2.6 2.3s-.9 2.5-2.3 2.6h-8.9l6.1 9.3c.5.8.5 1.9 0 2.7l-6.1 9.3h34.7v-14.1c.1-1.4 1.3-2.4 2.6-2.3 1.2.1 2.2 1.1 2.3 2.3v16.6c0 1.4-1.1 2.5-2.4 2.5zm79.9 0c-1.4 0-2.4-1.1-2.4-2.5 0-.9.5-1.7 1.2-2.1l20.5-11.5c1.2-.7 2.7-.3 3.4.9s.3 2.7-.9 3.4l-.1.1-20.5 11.5c-.4.1-.8.2-1.2.2z"/><path d="M255.6 175.6h-41.7c-1.4 0-2.4-1.1-2.4-2.4v-16.6c.1-1.4 1.3-2.4 2.6-2.3 1.2.1 2.2 1.1 2.3 2.3v14.1h34.7l-6.1-9.3c-.5-.8-.5-1.9 0-2.7l6.1-9.3h-8.6c-1.3.1-2.5-.9-2.6-2.3s.9-2.5 2.3-2.6h13.4c1.4 0 2.4 1.1 2.4 2.5 0 .5-.1.9-.4 1.3l-7.7 11.8 7.7 11.8c.7 1.1.4 2.7-.7 3.4-.4.2-.8.3-1.3.3zM192.7 121c-1.4 0-2.4-1.1-2.4-2.4v-59c0-6.7-3.6-11.2-8.9-11.2H167c-5.3 0-8.9 4.5-8.9 11.2v58.9c.1 1.4-.9 2.5-2.3 2.6-1.4.1-2.5-.9-2.6-2.3V59.6c0-9.5 5.7-16.1 13.8-16.1h14.4c8.1 0 13.8 6.6 13.8 16.1v58.9c-.1 1.4-1.2 2.5-2.5 2.5zm-18.4 91.7c-.8 0-1.5-.4-1.9-1l-18.8-24.5c-.3-.4-.5-1-.5-1.5v-35.1c.1-1.4 1.3-2.4 2.6-2.3 1.2.1 2.2 1.1 2.3 2.3V185l16.3 21.3 15.9-21.3v-34.3c.1-1.4 1.3-2.4 2.6-2.3 1.2.1 2.2 1.1 2.3 2.3v35.1c0 .5-.2 1-.5 1.5l-18.4 24.5c-.4.6-1.1 1-1.9.9z"/><path d="M192.7 76.5h-37.1c-1.3.1-2.5-.9-2.6-2.3s.9-2.5 2.3-2.6h37.5c1.4.1 2.4 1.3 2.3 2.6-.2 1.2-1.2 2.2-2.4 2.3zM166.3 186c-1.4 0-2.4-1.1-2.4-2.4v-32.9c-.1-1.4.9-2.5 2.3-2.6 1.4-.1 2.5.9 2.6 2.3v33.1c-.1 1.4-1.2 2.5-2.5 2.5zm15.9 0c-1.4 0-2.4-1.1-2.4-2.4v-33.7c.1-1.4 1.3-2.4 2.6-2.3 1.2.1 2.2 1.1 2.3 2.3v33.7c-.1 1.3-1.1 2.4-2.5 2.4z"/><path d="M166.3 121c-1.4 0-2.4-1.1-2.4-2.4V74.8c-.1-1.4.9-2.5 2.3-2.6 1.4-.1 2.5.9 2.6 2.3v44.1c-.1 1.3-1.2 2.4-2.5 2.4zm15.9 0c-1.4 0-2.4-1.1-2.4-2.4V74c.1-1.4 1.3-2.4 2.6-2.3 1.2.1 2.2 1.1 2.3 2.3v44.5c0 1.4-1.1 2.5-2.5 2.5zm10.5 65h-37.1c-1.3.1-2.5-.9-2.6-2.3s.9-2.5 2.3-2.6h37.5c1.4.1 2.4 1.3 2.3 2.6-.2 1.2-1.2 2.2-2.4 2.3z"/><path class="st2" d="M178.7 202.2h-8.9l4.5 8.1z"/><path d="M174.3 212.7c-.9 0-1.7-.5-2.1-1.2l-4.5-8.1c-.7-1.2-.2-2.7.9-3.3.4-.2.8-.3 1.2-.3h8.9c1.4 0 2.4 1.1 2.4 2.5 0 .4-.1.8-.3 1.2l-4.4 8.1c-.4.6-1.2 1.1-2.1 1.1zm-.3-8l.3.6.3-.6h-.6z"/><path class="st1" d="M380.9 17c2 4 6.6 6.8 7.1 11.3s-3.7 8.4-4.6 12.9c-1 5 2 10.6-.3 15.2L363.6 55l5-36.1 12.3-1.9zm18.1 2.2c-1.7 1.2-2 3.8-1.1 5.8 1 1.9 2.5 3.5 4.3 4.6 3.4 2.6 6.9 5.1 10.4 7.5l-2.2-18.3-11.4.4z"/><path d="M389.5 84.6c-16 0-28.9-12.9-28.9-28.9v-.4l5.4-36.9c.2-1 .9-1.8 1.9-2 25.9-6.2 42.6-.2 43.4.1.8.3 1.4 1.1 1.6 1.9l5.5 36.9v.4c-.2 16-13 28.9-28.9 28.9zm-24-28.7c0 13.3 10.7 24 24 24s24-10.7 24-24l-5.2-35.2c-4.2-1.2-18.1-4.2-37.6.1l-5.2 35.1z"/><path d="M418.7 27.6c-4.6 0-8.3-3.7-8.3-8.2 0-4.6 3.7-8.3 8.2-8.3 2.2 0 4.3.9 5.8 2.4l4.1 4.1c1 1 1 2.5 0 3.5l-4.1 4.1c-1.4 1.5-3.5 2.4-5.7 2.4zm0-11.6c-1.9 0-3.4 1.5-3.4 3.3s1.5 3.4 3.3 3.4c.9 0 1.8-.4 2.4-1l2.4-2.4-2.4-2.4c-.5-.5-1.4-.9-2.3-.9zM361 27.6c-2.2 0-4.3-.9-5.8-2.4l-4.1-4.1c-1-1-1-2.5 0-3.5l4.1-4.1c3.2-3.2 8.4-3.2 11.7 0 3.2 3.2 3.2 8.4 0 11.7-1.6 1.5-3.7 2.4-5.9 2.4zm-2.4-5.9c1.3 1.3 3.4 1.4 4.8.1s1.4-3.4.1-4.8l-.1-.1c-1.3-1.3-3.4-1.3-4.8 0l-2.4 2.4 2.4 2.4zm15.3-2.9c-1.4 0-2.5-1.1-2.5-2.4v-3.1c-.1-2.8 2-5.2 4.9-5.4 2.8-.1 5.2 2 5.4 4.9V15c.1 1.4-.9 2.5-2.3 2.6-1.4.1-2.5-.9-2.6-2.3v-2c0-.3-.5-.3-.5 0v3.1c0 1.3-1.1 2.4-2.4 2.4zm31.7 0c-1.4 0-2.5-1.1-2.5-2.4v-3.1c0-.3-.5-.3-.5 0V15c-.1 1.4-1.3 2.4-2.6 2.3-1.2-.1-2.2-1.1-2.3-2.3v-1.7c-.3-2.8 1.7-5.4 4.5-5.7 2.8-.3 5.4 1.7 5.7 4.5v4.3c.1 1.3-1 2.4-2.3 2.4zm10.2 38.6h-52.3c-1.4-.1-2.4-1.3-2.3-2.6.1-1.2 1.1-2.2 2.3-2.3h52.3c1.4.1 2.4 1.3 2.3 2.6-.1 1.2-1.1 2.2-2.3 2.3z"/><circle cx="402.8" cy="44" r="3.1"/><circle cx="376.6" cy="44" r="3.1"/><path class="st3" d="M467.6 72c.1 0 .1-.1.2-.1h.9c-.2.1-.4.2-.6.2-.1 0-.3 0-.5-.1z"/><path class="st1" d="M423.8 57.6c.3.1.8.3 1.2.4l.5.2.5.2c1.3.5 2.5 1 3.9 1.5l1.5.5c.5.2 1.1.3 1.7.4s1.3.3 1.9.4l.7.1.5.1 1.1.2c.4 1.9 1.3 3.7 2.5 5.2 1.5 1.9 3.5 3.4 5.8 4.3 1.1.4 2.3.7 3.5.9.3 0 .6 0 .9.1h9.5c1 0 2-.1 3-.1 2.1-.1 4.1 0 6.2.2.8 0 1.5-.1 2.2 0 2.6.1 5.3.1 7.9-.1 2-.2 4 .1 6 .1 1 0 1.8-.1 1.5-.5.2-.1.4-.2.7-.2h4.3c2.3-.2 4.4-1 6.3-2.3.9-.6 1.8-1.4 2.5-2.3.9-1.1 1.4-2.9 1.1-2.5l-1.6 1.8c-.8.9-1.8 1.7-2.8 2.4-.7.4-1.6.4-1.3 0l.6-.6c2.2-1.3 3.9-3.4 4.5-5.9.1-.3.2-.6.4-.9.2-.5.4-1 .4-1.5.1-.5.1-1.2.1-1.5-.1-1 .1-2 .5-2.9.2-.5.2-1.1.2-1.7-.1-1.6 0-3.2.2-4.8.1-.9 0-1.7-.4-2.5-.3-.7-.2-1.4.2-1.4s.6-.7.6-1.6v-6.7c0-.8-.2-1.5-.7-2.2-.3-.3-.3-.9-.1-1.2.1-.2.4.1.4-.6 0-.2-.1-.4-.3-.5-.4-.5-.5-1.2-.3-1.8.1-1.7-.2-3.4-1-5s-1.9-2.9-3.3-4c-.3-.3-.7-.4-1.1-.5-.2 0-.1.3.1.5.8.8 1.6 1.7 2.2 2.7.4.6.8 1.2 1 1.8.1.5 0 .8-.1.8s-.4-.5-.7-.8c-.4-.5-.7-1-1-1.6-.2-.5-.7-.8-1.2-1-.3 0-.1.3 0 .5s.3.6.5.9c-.3-.1-.7-.2-.9-.4-.9-.6-1.9-1.1-2.9-1.5-.8-.4-1.6-.6-2.5-.7-.2 0-.4 0-.6.1-.1.1 0 .2.1.2.5.1 1 .2 1.4.4.4.1.7.3 1 .5.1.1 0 .2-.2.4-.8-.3-1.6-.4-2.5-.4h-.4c.1-.3-.4-.5-1.4-.6-1.1 0-2.3-.1-3.4-.4-.7-.3.4-.5.4-.7.1-.6 1.1-1 2.5-1.2.8-.1 1.6-.5 2.2-1 .1-.1 0-.3-.2-.3-.9-.3-2.6 0-3-.6s-2.1-.5-2.5-1c-.4-.1-.8-.2-1.2-.2-2.1-.1-4.2-.1-6.3.1-1.1.2-2.3.1-3.4-.3-.8-.4-1.6-.4-2.5-.2h-1.5c-.6.1-1.2-.1-1.8-.4-.3-.2-.7-.3-1.1-.1-.8.4-1.7.4-2.6.2-1.2-.2-2.4-.3-3.6-.2h-10.8c-.5 0-.9.1-1.3.2-2.9.6-5.6 2-7.6 4.2-2.4 2.5-3.7 5.9-3.8 9.4v4.4c0 1.4 0 2.9-.1 4.3-.1 1.7-.1 3.5.1 5.2.1.9.1 1.7.1 2.6v7.8c-.5.3-1.1.5-1.7.8-.4.1-.5.2-1.4.5s-2 .5-3 .8c-.8.2-1.8.4-2.8.5s-2 .4-3 .5l-1.2.1zm76.8-26.4l.1-.3c0 .1.1.2.1.2 0 .1-.1.2-.1.3l-.1-.2zm-.7-1.9v-.8c.1.4.2.7.3 1.1v.4l-.3-.7zm-1.2 33.4l.1-.2c.1-.2.3-.4.4-.5-.1.2-.3.4-.5.6v.1zm-3.3-37.6c0-.1.1-.1.1-.2.2.1.4.1.6.2.1.2.2.3.3.5-.1.5.5 1.4.5 2.1-.3-.7-.6-1.4-1.1-2-.1-.1-.3-.4-.4-.6zm-12.5 45.8c-.1 0 .1-.1.1-.2l.5.2-.1.1c-.2 0-.4 0-.5-.1z"/><path class="st4" d="M457.1 48.3c0-2.6.8-5.2 2.3-7.3l7.9-11.4c1-1.5 3-1.8 4.5-.8.3.2.6.5.8.8l8 11.4c4.1 5.8 2.6 13.9-3.2 17.9s-13.9 2.6-17.9-3.2c-1.5-2.2-2.3-4.7-2.4-7.4zm7.6-3.7c-2 2.9-1.3 6.9 1.6 8.9 2.9 2 6.9 1.3 8.9-1.6 1.5-2.2 1.5-5.1 0-7.3l-5.3-7.6-5.2 7.6z"/><path class="st1" d="M74.1 286.7h75.1v43.6H74.1zm100.7 64.8h-46.6l-3.9 5.3H98.9l-3.9-5.3H50.3l12.3-9.9h98zm-69.2-126.3h18.8v14.7h-18.8z"/><path class="st1" d="M115.8 210.3h6.4v14.9h-6.4zm11.3 192.9c.1.7.1 1.4.1 2.1v15.9c0 10.7-8.7 19.4-19.4 19.4-4.4 0-8.7-1.5-12.1-4.3 1.1 9.8 9.4 17.3 19.3 17.3 10.7 0 19.4-8.7 19.4-19.4v-15.9c-.1-5.8-2.7-11.4-7.3-15.1z"/><path class="st4" d="M86.3 330.3h36.6l26.2-26.2v-17.4H130zm-12.2-.2l43.4-43.4h-14.7l-28.7 28.7z"/><path d="M160.6 344h-98c-1.4 0-2.5-1.1-2.5-2.5V280c0-3.9 3.1-7 7-7H156c3.9 0 7 3.1 7 7v61.6c0 1.3-1.1 2.4-2.4 2.4zm-95.5-4.9h93.1V280c0-1.2-1-2.1-2.1-2.1H67.2c-1.2 0-2.1 1-2.1 2.1v59.1z"/><path d="M48.4 354c-1.4 0-2.5-1.1-2.5-2.4 0-.8.4-1.6 1-2l14.2-10c1.1-.7 2.7-.4 3.4.8.7 1.1.4 2.5-.6 3.2l-14.2 10c-.3.2-.8.4-1.3.4zm140.2-32.6h-28c-1.4-.1-2.4-1.3-2.3-2.6.1-1.2 1.1-2.2 2.3-2.3h28c7.8-.2 13.9-6.7 13.7-14.5-.2-7.5-6.2-13.5-13.7-13.7h-28c-1.4-.1-2.4-1.3-2.3-2.6.1-1.2 1.1-2.2 2.3-2.3h28c10.5 0 19 8.5 19 19s-8.5 19-19 19z"/><path d="M114.9 400.7c-1.4 0-2.4-1.1-2.4-2.5v-6c0-7.2-5.9-13.1-13.1-13.1H12.3c-17.3-.3-31.1-14.6-30.8-31.9.3-16.9 13.9-30.5 30.8-30.8h50.4c1.3-.1 2.5.9 2.6 2.3.1 1.3-.9 2.5-2.3 2.6H12.3c-14.6 0-26.5 11.9-26.5 26.5s11.9 26.5 26.5 26.5h87.2c9.9 0 18 8.1 18 18v6c-.1 1.4-1.2 2.4-2.6 2.4z"/><path d="M149.1 332.8h-75c-1.4 0-2.4-1.1-2.4-2.5v-43.6c0-1.4 1.1-2.5 2.4-2.5h75.1c1.4 0 2.4 1.1 2.4 2.5v43.6c0 1.4-1.1 2.5-2.5 2.5zm-72.6-4.9h70.2v-38.8H76.5v38.8zm92.8 40.3H53.9c-4.4 0-7.9-3.6-7.9-7.9v-8.7c0-1.4 1.1-2.5 2.4-2.5H95c.8 0 1.5.4 2 1l3.2 4.3h23l3.2-4.3c.5-.6 1.3-1 2.1-1H175c1.4 0 2.4 1.1 2.4 2.5v8.7c-.1 4.3-3.7 7.9-8.1 7.9.1 0 .1 0 0 0zM50.9 354v6.2c0 1.7 1.3 3 3 3h115.4c1.7 0 3-1.3 3-3V354h-42.9l-3.1 4.2c-.5.6-1.2 1-2 1H98.9c-.8 0-1.5-.4-2-1l-3.1-4.2H50.9zm73.4-111.6h-18.8c-1.4 0-2.4-1.1-2.4-2.4v-14.7c0-1.4 1.1-2.4 2.4-2.4h18.8c1.4 0 2.4 1.1 2.4 2.4V240c.1 1.3-1 2.3-2.4 2.4zm-16.3-4.9h13.9v-9.8H108v9.8z"/><path d="M122.1 227.6h-14.4c-1.4 0-2.4-1.1-2.4-2.4v-14.9c0-1.4 1.1-2.4 2.4-2.4h14.4c1.4 0 2.4 1.1 2.4 2.4v14.9c.1 1.4-1 2.4-2.4 2.4zm-11.9-4.8h9.5v-10h-9.5v10zm4.7 55.1c-1.4 0-2.4-1.1-2.4-2.5v-35.5c-.1-1.4.9-2.5 2.3-2.6 1.4-.1 2.5.9 2.6 2.3v35.8c0 1.3-1.1 2.4-2.5 2.5zm.3 179.3h-.6c-11.9 0-21.5-9.7-21.5-21.5V418c0-11.9 9.7-21.5 21.6-21.5h.6c11.9 0 21.5 9.7 21.5 21.5v17.6c0 11.9-9.7 21.5-21.6 21.6zm-.6-55.8c-9.2 0-16.6 7.4-16.6 16.6v17.6c0 9.2 7.5 16.6 16.7 16.7h.6c9.2 0 16.6-7.5 16.7-16.7V418c0-9.2-7.5-16.6-16.7-16.7l-.7.1z"/><path d="M109.8 422.7H95.5c-1.4-.1-2.4-1.3-2.3-2.6.1-1.2 1.1-2.2 2.3-2.3h14.3c1.4.1 2.4 1.3 2.3 2.6-.1 1.3-1 2.3-2.3 2.3zm24.5 0H120c-1.4-.1-2.4-1.3-2.3-2.6.1-1.2 1.1-2.2 2.3-2.3h14.3c1.4-.1 2.5 1 2.6 2.3.1 1.3-.9 2.5-2.3 2.6h-.3z"/><path d="M114.9 426.7c-3.6 0-6.5-2.9-6.5-6.5s2.9-6.5 6.5-6.5 6.5 2.9 6.5 6.5-2.9 6.5-6.5 6.5zm0-8c-.9 0-1.6.7-1.6 1.6 0 .9.7 1.6 1.6 1.6.9 0 1.6-.7 1.6-1.6s-.7-1.6-1.6-1.6zm59.9-64.7c-.5 0-1-.2-1.4-.5l-14.2-10c-1.1-.8-1.3-2.4-.4-3.4.8-1 2.2-1.2 3.2-.6l14.2 10c1.1.8 1.4 2.3.6 3.4-.5.7-1.2 1.1-2 1.1z"/><path class="st1" d="M370.7 231.1l-24.5-8v-43.6l24.5 8zm6.2-43.6s-5.4 38.9 17.9 27.2l1.9 2.2v5.9l-24.3 7.7-1.7-43.1 6.2.1z"/><path d="M370.7 233.5c-.3 0-.5 0-.8-.1l-24.5-8c-1-.3-1.7-1.3-1.7-2.3v-43.6c0-1.4 1.1-2.5 2.4-2.5.3 0 .5 0 .8.1l24.5 8c1 .3 1.7 1.3 1.7 2.3V231c.1 1.4-1 2.5-2.4 2.5zm-22-12.2l19.6 6.4v-38.4l-19.6-6.4v38.4z"/><path d="M370.7 189.9c-.6 0-1.3-.3-1.7-.7l-12.4-12.4-9.3 4.8c-1.2.7-2.7.3-3.4-.8s-.3-2.7.8-3.4l.3-.1 10.9-5.6c.9-.5 2.1-.3 2.9.4l13.6 13.6c1 1 1 2.5 0 3.5-.4.5-1 .7-1.7.7z"/><path d="M396.7 181.9c-.6 0-1.3-.3-1.7-.7l-12.6-12.6-24.6 7.6c-1.3.4-2.7-.3-3.1-1.6-.1-.2-.1-.5-.1-.7v-6.2c0-1.1.7-2 1.7-2.3l26-8c1.3-.4 2.7.3 3.1 1.6.1.2.1.5.1.7v5.1l12.9 12.9c1 1 1 2.5 0 3.5-.4.4-1 .7-1.7.7zm-37.1-12.4v1l21.1-6.5v-1l-21.1 6.5z"/><path d="M370.7 190.2c-1.4 0-2.4-1.1-2.4-2.5 0-1.1.7-2 1.7-2.3l19.9-6.3c1.3-.4 2.7.4 3 1.7.4 1.3-.3 2.6-1.6 3l-19.9 6.3c-.2.1-.4.1-.7.1z"/><path d="M370.7 233.5c-1.4 0-2.4-1.1-2.4-2.5 0-1.1.7-2 1.7-2.3l24.3-7.7v-41.5c-.1-1.4.9-2.5 2.3-2.6 1.4-.1 2.5.9 2.6 2.3v43.6c0 1.1-.7 2-1.7 2.3l-26 8.2c-.3.2-.5.2-.8.2zm10.8-68.8c-1.4.2-2.8-.8-3-2.2-.1-1 .3-2 1.1-2.6l.7-.4c1.2-.7 2.7-.3 3.3.9.1.2.2.3.2.5l.1.4c.2.7.1 1.5-.3 2.1l-.2.3c-.3.6-1.1 1-1.9 1z"/><path d="M381.6 167.4h-.5l-.7-.1c-1.5-.4-2.3-1.9-1.9-3.4.4-1.5 1.9-2.3 3.4-1.9.9.3 1.6 1 1.9 1.9l.1.7c.2 1.3-.7 2.6-2 2.8 0 .1-.1.1-.3 0z"/><path class="st1" d="M46.9 172.9c-22.8 0-41.3 18.5-41.3 41.3s18.5 41.3 41.3 41.3 41.3-18.5 41.3-41.3c-.1-22.9-18.5-41.3-41.3-41.3zm0 73.4c-17.8 0-32.2-14.4-32.2-32.1S29 182 46.8 182 79 196.4 79 214.1c0 17.8-14.4 32.2-32.1 32.2z"/><path class="st1" d="M41.7 209L52 219.3l10.3-20.6z"/><path d="M46.9 257.9c-24.2 0-43.7-19.6-43.7-43.7 0-24.2 19.6-43.7 43.7-43.7s43.7 19.6 43.7 43.7-19.6 43.7-43.7 43.7zm0-82.6C25.4 175.3 8 192.7 8 214.2S25.4 253 46.9 253s38.8-17.4 38.8-38.8c0-21.5-17.4-38.9-38.8-38.9z"/><path d="M46.9 248.8c-19.1 0-34.6-15.5-34.6-34.6s15.5-34.6 34.6-34.6 34.6 15.5 34.6 34.6-15.5 34.6-34.6 34.6zm0-64.4c-16.4 0-29.7 13.3-29.7 29.7s13.3 29.7 29.7 29.7 29.7-13.3 29.7-29.7-13.3-29.7-29.7-29.7z"/><path d="M31.4 232c-1.4 0-2.4-1.1-2.4-2.5 0-.4.1-.7.3-1.1l10.3-20.6c.2-.5.6-.9 1.1-1.1l20.6-10.3c1.2-.6 2.7-.1 3.3 1.1.3.7.3 1.5 0 2.2l-10.3 20.6c-.2.5-.6.9-1.1 1.1l-20.5 10.3c-.5.2-.9.3-1.3.3zm12.1-21.2l-6.6 13.3 13.3-6.6 6.6-13.3-13.3 6.6z"/><path d="M46.9 216.6h-.5c-.2 0-.3-.1-.5-.1-.1-.1-.3-.1-.4-.2-.1-.1-.3-.2-.4-.3-1-1-1-2.5 0-3.4 1-.9 2.5-.9 3.5 0 1 1 1 2.5 0 3.4-.1.1-.2.2-.4.3-.1.1-.3.2-.4.2-.1.1-.3.1-.5.1h-.4zm0-28.2c-1.3 0-2.4-1.1-2.5-2.4v-4c.1-1.4 1.3-2.4 2.6-2.3 1.2.1 2.2 1.1 2.3 2.3v4c0 1.3-1.1 2.4-2.4 2.4zm0 60.4c-1.4 0-2.5-1.1-2.5-2.4v-4c-.1-1.4.9-2.5 2.3-2.6 1.4-.1 2.5.9 2.6 2.3v4.3c0 1.3-1.1 2.4-2.4 2.4zM79 216.6h-4c-1.3.1-2.5-.9-2.6-2.3s.9-2.5 2.3-2.6H79c1.3-.1 2.5.9 2.6 2.3s-.9 2.5-2.3 2.6H79zm-60.3 0h-4c-1.3.1-2.5-.9-2.6-2.3-.1-1.3.9-2.5 2.3-2.6h4.3c1.4-.1 2.5.9 2.6 2.3.1 1.4-.9 2.5-2.3 2.6h-.3z"/><path class="st1" d="M218.1 330.3h56.2v26.8h-56.2zm39.7-62.7v-19.5h3.4v-11h-30v11h3.9v19.3c-10.3 4.4-17 14.6-17 25.8v4.5h56.2v-4.5c0-11-6.4-21-16.5-25.6z"/><path class="st4" d="M249 268.1v-20h-9v20c-10.3 4.4-17 14.6-17 25.8v63.2h9v-63.2c0-11.2 6.7-21.4 17-25.8zm-12-31h8.5v11H237z"/><path d="M261.2 250.5h-30c-1.4 0-2.4-1.1-2.4-2.4v-11c0-1.4 1.1-2.4 2.4-2.4h30c1.4 0 2.5 1.1 2.5 2.4v11c0 1.3-1.1 2.4-2.5 2.4zm-27.5-4.9h25.1v-6.1h-25.1v6.1z"/><path d="M255.4 239.6c-1.4 0-2.4-1.1-2.4-2.4v-4.6h-13.5v4.6c.1 1.4-.9 2.5-2.3 2.6-1.4.1-2.5-.9-2.6-2.3V230c0-1.4 1.1-2.4 2.4-2.4h18.4c1.3 0 2.4 1.1 2.4 2.4v7.1c.1 1.3-1 2.5-2.4 2.5.1 0 .1 0 0 0zm18.9 60.6h-56.2c-1.4-.1-2.4-1.3-2.3-2.6.1-1.2 1.1-2.2 2.3-2.3h56.2c1.4.1 2.4 1.3 2.3 2.6 0 1.3-1 2.2-2.3 2.3zm0 32.6h-56.2c-1.4-.1-2.4-1.3-2.3-2.6.1-1.2 1.1-2.2 2.3-2.3h56.2c1.4.1 2.4 1.3 2.3 2.6 0 1.2-1 2.2-2.3 2.3z"/><path d="M274.3 359.5h-56.2c-1.4 0-2.4-1.1-2.4-2.5v-63.2c0-11.6 6.6-22.2 17-27.4v-18.5c0-1.4 1.1-2.4 2.4-2.4h23c1.4 0 2.5 1.1 2.5 2.4v18.9c10 5.3 16.2 15.7 16.2 27V357c0 1.4-1.1 2.5-2.5 2.5zm-53.7-4.9h51.3v-60.7c0-10-5.8-19-14.8-23.3-.9-.4-1.4-1.3-1.4-2.2v-17.9h-18.1v17.6c0 1-.6 1.9-1.5 2.2-9.4 4.1-15.5 13.3-15.5 23.6v60.7z"/><path d="M229.3 309c1.7-.6 1.7-3.2 3.8-3.8 1.3 0 2.2.6 2.1 2.4-.8 2.1-2.5 3.3-3.4 5.4.7.8 1.4 1.6 2 2.5.4 1.3 1.4 1.7 1.6 3.2-.1 1-1.1 1.8-2.1 1.7-2.2-.4-2.1-3.7-3.9-4.3-1.1.9-2.3 3.8-3.2 4.7-1.1.3-2.2-.4-2.5-1.4 0-3 2.8-3.5 3.2-6.3-.5-2.4-2.9-3.5-3.6-6 0-1.1 1-2 2.1-1.9.2 0 .4 0 .6.1 1.4.9 1.9 2.6 3.3 3.7zm16.2 0c1.7-.6 1.7-3.2 3.8-3.8 1.3 0 2.2.6 2.1 2.4-.8 2.1-2.5 3.3-3.4 5.4.7.8 1.4 1.6 2 2.5.4 1.3 1.4 1.7 1.6 3.2-.1 1-1.1 1.8-2.1 1.7-2.2-.4-2.1-3.7-3.9-4.3-1.1.9-2.3 3.8-3.2 4.7-1.1.3-2.2-.4-2.5-1.4 0-3 2.8-3.5 3.2-6.3-.5-2.4-2.9-3.5-3.6-6 0-1.1 1-2 2.1-1.9.2 0 .4 0 .6.1 1.5.9 2 2.6 3.3 3.7zm16.3 0c1.7-.6 1.7-3.2 3.8-3.8 1.3 0 2.2.6 2.1 2.4-.8 2.1-2.5 3.3-3.4 5.4.7.8 1.4 1.6 2 2.5.4 1.3 1.4 1.7 1.6 3.2-.1 1-1.1 1.8-2.1 1.7-2.2-.4-2.1-3.7-3.9-4.3-1.1.9-2.3 3.8-3.2 4.7-1.1.3-2.2-.4-2.5-1.4 0-3 2.8-3.5 3.2-6.3-.5-2.4-2.9-3.5-3.6-6 0-1.1 1-2 2.1-1.9.2 0 .4 0 .6.1 1.5.9 1.9 2.6 3.3 3.7z"/><path class="st1" d="M27 51.9h25.4v26.4H27zm25.4-26H77V52H52.4z"/><path d="M90.9 94.8h-8.8c-1.2 0-2.3-.9-2.4-2.1-.2-1.6-1.7-2.7-3.3-2.5-1.3.2-2.3 1.2-2.5 2.5-.2 1.2-1.2 2.1-2.4 2.1H57.7c-1.2 0-2.3-.9-2.4-2.1-.2-1.6-1.7-2.7-3.3-2.5-1.3.2-2.3 1.2-2.5 2.5-.2 1.2-1.2 2.2-2.5 2.1H33.3c-1.2 0-2.3-.9-2.4-2.1-.2-1.6-1.7-2.7-3.3-2.5-1.3.2-2.3 1.2-2.5 2.5-.2 1.2-1.2 2.1-2.4 2.1h-8.8c-1.4 0-2.4-1.1-2.4-2.4V86c0-1.2.9-2.3 2.1-2.4 1.6-.2 2.7-1.7 2.5-3.3-.2-1.3-1.2-2.3-2.5-2.5-1.2-.2-2.1-1.2-2.1-2.4v-8.2c0-1.2.9-2.3 2.1-2.4 1.6-.2 2.7-1.7 2.5-3.3-.2-1.3-1.2-2.3-2.5-2.5-1.2-.2-2.1-1.2-2.1-2.4v-8.2c0-1.2.9-2.3 2.1-2.4 1.6-.2 2.7-1.7 2.5-3.3-.2-1.3-1.2-2.3-2.5-2.5-1.3-.2-2.2-1.2-2.1-2.5v-8.3c0-1.2.9-2.3 2.1-2.4 1.6-.2 2.7-1.7 2.5-3.3-.2-1.3-1.2-2.3-2.5-2.5-1.2-.2-2.1-1.2-2.1-2.4v-7c0-1.4 1.1-2.4 2.4-2.4h8.8c1.2 0 2.3.9 2.4 2.1.2 1.6 1.7 2.7 3.3 2.5 1.3-.2 2.3-1.2 2.5-2.5.2-1.2 1.2-2.1 2.4-2.1H47c1.2 0 2.3.9 2.4 2.1.2 1.6 1.7 2.7 3.3 2.5 1.3-.2 2.3-1.2 2.5-2.5.2-1.2 1.2-2.2 2.5-2.1h13.7c1.2 0 2.3.9 2.4 2.1.2 1.5 1.4 2.5 2.9 2.6 1.9 0 4.1-1.5 4.3-2.6.2-1.2 1.2-2.1 2.4-2.1h7.4c1.4 0 2.4 1.1 2.4 2.4v7c0 1.2-.9 2.3-2.1 2.5-1.6.2-2.7 1.7-2.5 3.3.2 1.3 1.2 2.3 2.5 2.5 1.2.2 2.1 1.2 2.1 2.4v8.3c0 1.2-.9 2.3-2.1 2.5-1.6.2-2.7 1.7-2.5 3.3.2 1.3 1.2 2.3 2.5 2.5 1.2.2 2.1 1.2 2.1 2.4v8.2c0 1.2-.9 2.3-2.1 2.4-1.6.2-2.7 1.7-2.5 3.3.2 1.3 1.2 2.3 2.5 2.5 1.2.2 2.1 1.2 2.1 2.4v8.2c0 1.2-.9 2.3-2.1 2.4-1.6.2-2.7 1.7-2.5 3.3.2 1.3 1.2 2.3 2.5 2.5 1.2.2 2.1 1.2 2.1 2.4v6.3c.1 1.3-1 2.4-2.3 2.4zm-7-4.9h4.5v-2c-4-1.7-5.8-6.3-4-10.3.8-1.8 2.2-3.3 4-4V69c-4-1.7-5.8-6.3-4-10.3.8-1.8 2.2-3.3 4-4v-4.6c-4-1.7-5.8-6.3-4-10.3.8-1.8 2.2-3.3 4-4V31c-4-1.7-5.8-6.3-4-10.3.8-1.8 2.2-3.3 4-4V14h-3.3c-1.8 2.9-5 4.7-8.4 4.7-3.1 0-5.9-1.9-7.2-4.7h-10c-1.7 4-6.3 5.8-10.3 4-1.8-.8-3.3-2.2-4-4h-10c-1.7 4-6.3 5.8-10.3 4-1.8-.8-3.3-2.2-4-4h-4.6v2.7c4 1.7 5.8 6.3 4 10.3-.8 1.8-2.2 3.3-4 4v4.7c4 1.7 5.8 6.3 4 10.3-.8 1.8-2.2 3.3-4 4v4.6c4 1.7 5.8 6.3 4 10.3-.8 1.8-2.2 3.3-4 4v4.6c4 1.7 5.8 6.3 4 10.3-.8 1.8-2.2 3.3-4 4v2h4.5c1.7-4 6.3-5.8 10.3-4 1.8.8 3.3 2.2 4 4h10c1.7-4 6.3-5.8 10.3-4 1.8.8 3.3 2.2 4 4h10c1.7-4 6.3-5.8 10.3-4 1.9.8 3.3 2.2 4.2 4.1zm-6.2-9.1H27c-1.4 0-2.4-1.1-2.5-2.4V25.5c0-1.4 1.1-2.5 2.4-2.5h50.8c1.4 0 2.4 1.1 2.4 2.5v52.8c.1 1.4-1 2.5-2.4 2.5zm-48.3-4.9h45.9V28H29.4v47.9z"/><path d="M52.4 69.2c-7.9 0-14.3-6.4-14.3-14.3 0-2.9.9-5.8 2.6-8.2l9.8-14c.8-1.1 2.3-1.4 3.4-.6l.6.6 9.8 14c4.5 6.5 2.9 15.5-3.6 20-2.6 1.6-5.4 2.5-8.3 2.5zm0-30.8l-7.8 11.1c-3 4.3-1.9 10.2 2.4 13.1 4.3 3 10.2 1.9 13.1-2.4 2.2-3.2 2.2-7.5 0-10.8l-7.7-11z"/><path class="st1" d="M299.1 270.5l1 4.3c.3 1.3 1.3 2.3 2.6 2.6l4.3 1c.6.1 1 .8.9 1.4-.1.4-.4.8-.9.9l-4.3 1c-1.3.3-2.3 1.3-2.6 2.6l-1 4.3c-.1.6-.8 1-1.4.9-.4-.1-.8-.4-.9-.9l-1-4.3c-.3-1.3-1.3-2.3-2.6-2.6l-4.3-1c-.6-.1-1-.8-.9-1.4.1-.4.4-.8.9-.9l4.3-1c1.3-.3 2.3-1.3 2.6-2.6l1-4.3c.1-.6.8-1 1.4-.9.5.1.8.5.9.9zM20.5 334.8l1 4.3c.3 1.3 1.3 2.3 2.6 2.6l4.3 1c.6.1 1 .8.9 1.4-.1.4-.4.8-.9.9l-4.3 1c-1.3.3-2.3 1.3-2.6 2.6l-1 4.3c-.1.6-.8 1-1.4.9-.4-.1-.8-.4-.9-.9l-1-4.3c-.3-1.3-1.3-2.3-2.6-2.6l-4.3-1c-.6-.1-1-.8-.9-1.4.1-.4.4-.8.9-.9l4.3-1c1.3-.3 2.3-1.3 2.6-2.6l1-4.3c.1-.6.8-1 1.4-.9.5.1.8.5.9.9zm76.2 130.6l1.4 6.4c.4 1.9 2 3.5 3.9 3.9l6.4 1.5c.9.2 1.5 1.1 1.3 2.1-.1.6-.6 1.1-1.3 1.3L102 482c-1.9.4-3.5 2-3.9 3.9l-1.4 6.4c-.2.9-1.1 1.5-2.1 1.3-.6-.1-1.1-.6-1.3-1.3l-1.4-6.4c-.4-1.9-2-3.5-3.9-3.9l-6.4-1.5c-.9-.2-1.5-1.1-1.3-2.1.1-.6.6-1.1 1.3-1.3l6.5-1.4c1.9-.4 3.5-2 3.9-3.9l1.4-6.4c.2-.9 1.1-1.5 2.1-1.3.6.1 1.1.6 1.2 1.3zm55.4-228.8l1.5 6.4c.4 1.9 2 3.5 3.9 3.9l6.4 1.4c.9.2 1.5 1.1 1.3 2.1-.1.6-.6 1.1-1.3 1.3l-6.4 1.4c-1.9.4-3.5 2-3.9 3.9l-1.4 6.4c-.2.9-1.1 1.5-2.1 1.3-.6-.1-1.1-.6-1.3-1.3l-1.4-6.5c-.4-1.9-2-3.5-3.9-3.9l-6.5-1.4c-.9-.2-1.5-1.1-1.3-2.1.1-.6.6-1.1 1.3-1.3l6.4-1.4c1.9-.4 3.5-2 3.9-3.9l1.4-6.4c.2-.9 1.1-1.5 2-1.4.8.2 1.3.8 1.4 1.5zM77.8 446.7l.7 3c.2.9.9 1.6 1.8 1.8l3 .7c.4.1.7.5.6 1-.1.3-.3.5-.6.6l-3 .7c-.9.2-1.6.9-1.8 1.8l-.7 3c-.1.4-.5.7-1 .6-.3-.1-.5-.3-.6-.6l-.7-3c-.2-.9-.9-1.6-1.8-1.8l-3-.7c-.4-.1-.7-.5-.6-1 .1-.3.3-.5.6-.6l3-.7c.9-.2 1.6-.9 1.8-1.8l.7-3c.1-.4.5-.7 1-.6.3 0 .6.3.6.6zM424.3 76l.7 3c.2.9.9 1.6 1.8 1.8l3 .7c.4.1.7.5.6 1-.1.3-.3.5-.6.6l-3 .7c-.9.2-1.6.9-1.8 1.8l-.7 3c-.1.4-.5.7-1 .6-.3-.1-.5-.3-.6-.6l-.7-3c-.2-.9-.9-1.6-1.8-1.8l-3-.7c-.4-.1-.7-.5-.6-1 .1-.3.3-.5.6-.6l3-.7c.9-.2 1.6-.9 1.8-1.8l.7-3c.1-.4.5-.7 1-.6.3.1.5.3.6.6zM166 217.7l.7 3c.2.9.9 1.6 1.8 1.8l3 .7c.4.1.7.5.6 1-.1.3-.3.5-.6.6l-3 .7c-.9.2-1.6.9-1.8 1.8l-.7 3c-.1.4-.5.7-1 .6-.3-.1-.5-.3-.6-.6l-.7-3c-.2-.9-.9-1.6-1.8-1.8l-3-.7c-.4-.1-.7-.5-.6-1 .1-.3.3-.5.6-.6l3-.7c.9-.2 1.6-.9 1.8-1.8l.7-3c.1-.4.5-.7 1-.6.3.1.5.3.6.6zm-24.1-17.8l.7 3c.2.9.9 1.6 1.8 1.8l3 .7c.4.1.7.5.6 1-.1.3-.3.5-.6.6l-3 .7c-.9.2-1.6.9-1.8 1.8l-.7 3c-.1.4-.5.7-1 .6-.3-.1-.5-.3-.6-.6l-.7-3c-.2-.9-.9-1.6-1.8-1.8l-3-.7c-.4-.1-.7-.5-.6-1 .1-.3.3-.5.6-.6l3-.7c.9-.2 1.6-.9 1.8-1.8l.7-3c.1-.4.5-.7 1-.6.3 0 .5.3.6.6zm67.7-11.4l6.4-6.4c.4-.4 1-.4 1.4 0l6.4 6.4c.4.4.4 1 0 1.4l-6.4 6.4c-.4.4-1 .4-1.4 0l-6.4-6.4c-.4-.4-.4-1 0-1.4zM405.8 140l6.4-6.4c.4-.4 1-.4 1.4 0l6.4 6.4c.4.4.4 1 0 1.4l-6.4 6.4c-.4.4-1 .4-1.4 0l-6.4-6.4c-.3-.4-.3-1 0-1.4zm-63.9 106l6.4-6.4c.4-.4 1-.4 1.4 0l6.4 6.4c.4.4.4 1 0 1.4l-6.4 6.4c-.4.4-1 .4-1.4 0l-6.4-6.4c-.4-.4-.4-1 0-1.4zm-154.5 91.6l6.4-6.4c.4-.4 1-.4 1.4 0l6.4 6.4c.4.4.4 1 0 1.4l-6.4 6.4c-.4.4-1 .4-1.4 0l-6.4-6.4c-.4-.4-.4-1.1 0-1.4z"/><circle class="st1" cx="231.3" cy="219.7" r="2.3"/><circle class="st5" cx="487.6" cy="362.1" r="2.3"/><circle class="st1" cx="209.3" cy="364" r="2.3"/><circle class="st1" cx="376.4" cy="420.8" r="2.3"/><circle class="st1" cx="474.4" cy="276.3" r="2.3"/><circle class="st1" cx="208.3" cy="49.1" r="2.3"/><circle class="st1" cx="473.5" cy="196.1" r="2.3"/><circle class="st1" cx="138.8" cy="383.2" r="2.3"/><circle class="st1" cx="418" cy="212.2" r="4.1"/><circle class="st1" cx="255.6" cy="123.4" r="4.2"/><circle class="st1" cx="83.9" cy="402" r="4.1"/><circle class="st1" cx="131.9" cy="471.5" r="4.1"/><circle class="st1" cx="246.6" cy="202.2" r="4.1"/><circle class="st1" cx="219.1" cy="60.9" r="4.1"/><circle class="st1" cx="11.8" cy="275.1" r="4.1"/><circle class="st1" cx="95.8" cy="192" r="4.1"/><circle class="st1" cx="487.6" cy="303" r="4.1"/><circle class="st1" cx="308.2" cy="214.1" r="2.5"/><path class="st1" d="M321 218l1-2.9-4.8 2.1c-4.7 2.2-10 2.1-14.7-.1l-.2-.1c-1.7-.9-3.3-2.1-4.6-3.5-2.8 1-5.9-.4-6.9-3.1-.9-2.5.1-5.2 2.3-6.5-.4-2.8-.1-5.8.9-8.5l.4-1.1-4.6 1.6c0-.5 0-.9.1-1.4-11.6 5.2-16.8 18.7-11.7 30.4 5.2 11.6 18.7 16.8 30.4 11.7 7.7-3.4 12.9-10.7 13.6-19-.5.1-.8.3-1.2.4zm-31.5 11.3c-1 0-1.7-.8-1.7-1.7s.8-1.7 1.7-1.7c1 0 1.7.8 1.7 1.7 0 .9-.7 1.7-1.7 1.7zm14 0c-1.9 0-3.5-1.6-3.5-3.5s1.6-3.5 3.5-3.5 3.5 1.6 3.5 3.5-1.6 3.5-3.5 3.5z"/><circle class="st1" cx="315.8" cy="209.8" r="1.4"/><g id="_Group_"><path d="M278.7 188.3c-3.2 0-5.9-2.6-5.9-5.8v-16.8c-.1-1.4.9-2.5 2.3-2.6 1.4-.1 2.5.9 2.6 2.3v17.1c-.2.5.1 1.1.6 1.3.5.2 1.1-.1 1.3-.6.1-.2.1-.4 0-.6v-23.7c-.1-3.2 2.3-6 5.6-6.1 3.2-.1 6 2.3 6.1 5.6V175c-.2.5.1 1.1.6 1.3.5.2 1.1-.1 1.3-.6.1-.2.1-.4 0-.6v-27.8c-.1-1.4.9-2.5 2.3-2.6 1.4-.1 2.5.9 2.6 2.3v28c.1 3.2-2.3 6-5.6 6.1-3.2.1-6-2.3-6.1-5.6v-16.9c.2-.5-.1-1.1-.6-1.3-.5-.2-1.1.1-1.3.6-.1.2-.1.4 0 .6v23.7c.1 3.4-2.5 6-5.8 6.1z" id="_Group_2"/><path d="M299.1 250.1c-18.2 0-33-14.8-33-33v-84.6c-.1-1.4.9-2.5 2.3-2.6 1.4-.1 2.5.9 2.6 2.3V217c0 15.5 12.6 28.1 28.1 28.1 15.5 0 28.1-12.6 28.1-28.1v-44.9c.1-1.4 1.3-2.4 2.6-2.3 1.2.1 2.2 1.1 2.3 2.3V217c.1 18.3-14.7 33.1-33 33.1z" id="_Group_3"/><path d="M329.7 165.7c-1.4 0-2.5-1.1-2.5-2.4v-4.4c.1-1.4 1.3-2.4 2.6-2.3 1.2.1 2.2 1.1 2.3 2.3v4.4c0 1.3-1.1 2.4-2.4 2.4z" id="_Group_4"/><path d="M329.7 153.9c-1.4 0-2.5-1.1-2.5-2.4v-19c-.1-1.4.9-2.5 2.3-2.6 1.4-.1 2.5.9 2.6 2.3v19.3c0 1.3-1.1 2.4-2.4 2.4z" id="_Group_5"/><path d="M305.9 187.2c-3.2 0-5.9-2.6-5.9-5.8v-26.8c.1-1.4 1.3-2.4 2.6-2.3 1.2.1 2.2 1.1 2.3 2.3v26.8c-.2.5.1 1.1.6 1.3.5.2 1.1-.1 1.3-.6.1-.2.1-.4 0-.6v-24.3c-.1-3.2 2.3-6 5.6-6.1 3.2-.1 6 2.3 6.1 5.6V173c.2.5.7.8 1.3.6.3-.1.5-.3.6-.6v-26.1c.1-1.4 1.3-2.4 2.6-2.3 1.2.1 2.2 1.1 2.3 2.3V173c-.1 3.2-2.9 5.7-6.1 5.6-3-.1-5.5-2.6-5.6-5.6v-15.7c.2-.5-.1-1.1-.6-1.3-.5-.2-1.1.1-1.3.6-.1.2-.1.4 0 .6v24.3c0 3.1-2.6 5.7-5.8 5.7z" id="_Group_6"/><path d="M302.5 149.7c-1.4 0-2.5-1.1-2.5-2.4v-2.7c.1-1.4 1.3-2.4 2.6-2.3 1.2.1 2.2 1.1 2.3 2.3v2.7c0 1.3-1.1 2.4-2.4 2.4z" id="_Group_7"/><path d="M299.1 241.2c-14 0-25.3-11.3-25.3-25.3s11.3-25.3 25.3-25.3 25.3 11.3 25.3 25.3c0 13.9-11.3 25.2-25.3 25.3zm0-45.8c-11.3 0-20.4 9.2-20.4 20.4s9.2 20.4 20.4 20.4 20.4-9.2 20.4-20.4-9.1-20.4-20.4-20.4z" id="_Group_8"/><path d="M295.7 138.6c-1.4 0-2.5-1.1-2.5-2.4V131c-.1-1.4.9-2.5 2.3-2.6 1.4-.1 2.5.9 2.6 2.3v5.5c0 1.3-1.1 2.4-2.4 2.4z" id="_Group_9"/><path d="M282.1 149.2c-1.4 0-2.5-1.1-2.5-2.4v-20.5c-.1-1.4.9-2.5 2.3-2.6 1.4-.1 2.5.9 2.6 2.3v20.8c0 1.3-1.1 2.4-2.4 2.4z" id="_Group_10"/></g><path class="st1" d="M418.2 355.4c-1-2.5-2.9-4.6-5.4-5.7l-.3-.1c-5.4-2.3-11.6.2-13.9 5.6-.3.7-.5 1.5-.7 2.3v-.3c0-7.2-5.8-13.2-13-13.2-1.8 0-3.5.3-5.1 1l-.3.1c-6.6 3-9.5 10.8-6.5 17.4.7 1.4 1.6 2.8 2.7 3.9l4.8 4.8c-4.4-3.6-10.8-2.9-14.4 1.5-.7.9-1.3 1.9-1.7 3l-.1.3c-1.9 5.3.9 11.2 6.2 13.1 1.1.4 2.2.6 3.4.6H399l-.8-.8 13.1-11.4 1.9-13.4 5-8.7z"/><path class="st1" d="M375.6 398.3l.1.2c1.5 3.1 5.1 4.4 8.2 2.9.6-.3 1.2-.7 1.7-1.2l10.6-10.6h-15c-3.4 0-6.1 2.7-6.1 6.1-.1.9.1 1.8.5 2.6z"/><path class="st5" d="M389.2 404.7h.1c2.1.7 4.4-.3 5.1-2.4.2-.4.2-.9.2-1.4v-9.8l-6.9 6.9c-1.6 1.5-1.6 4.1-.1 5.7.5.4 1.1.7 1.6 1z"/><path class="st1" d="M401 428.2c3.9 0 7 3.1 7 7v5.6c0 3.9-3.1 7-7 7s-7-3.1-7-7v-5.6c0-3.8 3.1-7 7-7z"/><path d="M421.9 416.6c-15.2 0-28.6-12.3-28.6-26.4 0-1.4 1.1-2.5 2.4-2.5h15.4c1.3-.1 2.5.9 2.6 2.3.1 1.3-.9 2.5-2.3 2.6h-13.1c1.5 10.2 12 19 23.6 19 11.8 0 21.4-9.6 21.5-21.5v-36.5c-.1-1.4.9-2.5 2.3-2.6 1.4-.1 2.5.9 2.6 2.3v36.8c0 14.7-11.8 26.5-26.4 26.5z"/><path d="M419.6 399.2h-8.5c-1.4 0-2.5-1.1-2.5-2.4v-22.7c0-14.6 11.8-26.4 26.4-26.4 14.6 0 26.4 11.8 26.4 26.4 0 1.4-1.1 2.5-2.4 2.5h-13.1c-1.4-.1-2.4-1.3-2.3-2.6.1-1.2 1.1-2.2 2.3-2.3h10.5c-1.4-11.8-12-20.2-23.8-18.9-10.8 1.2-19 10.4-19 21.3v20.3h6c5.3 0 9.7-4.3 9.7-9.7V378c.1-1.4 1.3-2.4 2.6-2.3 1.2.1 2.2 1.1 2.3 2.3v6.7c-.1 8-6.5 14.5-14.6 14.5z"/><path d="M438.2 366.4c-1.4 0-2.5-1.1-2.5-2.4 0-.7-.6-1.3-1.3-1.3-.7 0-1.3.6-1.3 1.3-.1 1.4-1.3 2.4-2.6 2.3-1.2-.1-2.2-1.1-2.3-2.3 0-3.4 2.8-6.2 6.2-6.2 3.4 0 6.2 2.8 6.2 6.2.1 1.3-1 2.4-2.4 2.4zm-40.1 25.4c-.6 0-1.3-.3-1.7-.7l-22.3-22.3c-3.7-3.7-5.3-8.9-4.3-14 .9-5 4.2-9.2 8.9-11.2l.3-.1c4.7-2.1 10.2-1.6 14.5 1.3 4.4 2.9 7.1 7.8 7.1 13.1-.1 1.4-1.3 2.4-2.6 2.3-1.2-.1-2.2-1.1-2.3-2.3 0-3.6-1.8-7-4.9-9-2.9-2-6.7-2.3-9.9-.9l-.3.1c-3.2 1.4-5.4 4.3-6 7.7-.7 3.5.5 7.1 3 9.6l22.3 22.3c1 1 1 2.5 0 3.5-.4.3-1.1.6-1.8.6z"/><path d="M397.9 392.3c-1.4 0-2.5-1.1-2.5-2.4V360c0-4.5 2.2-8.6 6-11.1 3.6-2.4 8.2-2.8 12.2-1l.3.1c3.1 1.4 5.4 3.9 6.7 7 .6 1.2 0 2.7-1.2 3.2-1.2.6-2.7 0-3.2-1.2l-.1-.2c-.8-1.9-2.2-3.5-4.1-4.4l-.2-.1c-2.5-1.1-5.3-.9-7.6.6-2.4 1.5-3.8 4.2-3.8 7v29.9c0 1.4-1.1 2.5-2.5 2.5z"/><path d="M399.1 392.6H374c-4.1 0-8-2-10.3-5.3-2.4-3.4-3-7.7-1.6-11.6l.1-.3c2.4-6.6 9.6-10 16.2-7.6 1.8.6 3.3 1.6 4.7 3 .9 1 .8 2.6-.2 3.5-.9.8-2.3.8-3.3 0-3-3-8-3-11 0-.8.8-1.4 1.8-1.8 2.9l-.1.3c-.9 2.4-.5 5.1 1 7.1 1.4 2.1 3.8 3.3 6.3 3.3h25.1c1.4.1 2.4 1.3 2.3 2.6-.1 1-1.1 2-2.3 2.1z"/><path d="M381.5 405c-.5 0-1 0-1.5-.1-2.8-.5-5.1-2.3-6.3-4.8l-.1-.2c-2-4.3-.2-9.4 4.1-11.4 1.1-.5 2.4-.8 3.6-.8 1.3-.1 2.5.9 2.6 2.3.1 1.3-.9 2.5-2.3 2.6h-.3c-2 0-3.7 1.6-3.7 3.7 0 .5.1 1.1.4 1.6l.1.1c.5 1.1 1.5 1.9 2.7 2.1 1.2.2 2.4-.2 3.2-1l10.6-10.6c1-.9 2.6-.8 3.5.2.8.9.8 2.3 0 3.3l-10.6 10.6c-1.6 1.5-3.7 2.4-6 2.4z"/><path d="M390.9 407.9c-.7 0-1.5-.1-2.1-.4l-.2-.1c-3.3-1.2-5.1-4.9-3.8-8.3.3-.9.8-1.7 1.5-2.3 1-.9 2.6-.8 3.5.2.8.9.8 2.3 0 3.3-.6.6-.6 1.6 0 2.2.2.2.4.3.6.4.5.2 1.1.1 1.5-.2.4-.3.7-.8.6-1.3v-9.8c-.1-1.4.9-2.5 2.3-2.6 1.4-.1 2.5.9 2.6 2.3v10.1c0 3.6-2.9 6.5-6.5 6.5z"/><path d="M398.3 391.5c-1.4 0-2.4-1.1-2.4-2.5 0-.6.3-1.3.7-1.7l11.7-11.7c1-.9 2.6-.8 3.5.2.8.9.8 2.3 0 3.3l-11.7 11.7c-.5.4-1.1.7-1.8.7zm14.8 37.5c-1.4 0-2.5-1.1-2.5-2.4v-12.3c.1-1.4 1.3-2.4 2.6-2.3 1.2.1 2.2 1.1 2.3 2.3v12.3c0 1.3-1 2.4-2.4 2.4zm17.7 0c-1.4 0-2.5-1.1-2.5-2.4v-12.3c.1-1.4 1.3-2.4 2.6-2.3 1.2.1 2.2 1.1 2.3 2.3v12.3c0 1.3-1 2.4-2.4 2.4zm-29.9 21.3c-5.6 0-10.2-4.6-10.2-10.2v-4.8c.2-5.6 4.9-10.1 10.5-9.9 5.4.2 9.7 4.5 9.9 9.9v4.8c0 5.7-4.5 10.2-10.2 10.2zm0-20.3c-2.9 0-5.3 2.4-5.3 5.3v4.8c0 2.9 2.4 5.3 5.3 5.3s5.3-2.4 5.3-5.3v-4.8c0-2.9-2.3-5.3-5.3-5.3z"/><path d="M440.9 450.3h-40c-1.4-.1-2.4-1.3-2.3-2.6.1-1.2 1.1-2.2 2.3-2.3h40c2.9 0 5.3-2.4 5.3-5.3v-4.8c0-2.9-2.4-5.3-5.3-5.3h-40c-1.4-.1-2.4-1.3-2.3-2.6.1-1.2 1.1-2.2 2.3-2.3h40c5.6 0 10.2 4.6 10.2 10.2v4.8c0 5.7-4.6 10.2-10.2 10.2z"/><path d="M400.5 443.4c-1.4 0-2.5-1.1-2.5-2.4v-6.4c.1-1.4 1.3-2.4 2.6-2.3 1.2.1 2.2 1.1 2.3 2.3v6.4c0 1.3-1.1 2.4-2.4 2.4zm19.3-6.7c-1.4 0-2.5-1.1-2.5-2.4 0-2.3-1.9-4.2-4.2-4.2-1.4-.1-2.4-1.3-2.3-2.6.1-1.2 1.1-2.2 2.3-2.3 5 0 9.1 4.1 9.1 9.1 0 1.3-1.1 2.4-2.4 2.4zm18.6 0c-1.4 0-2.5-1.1-2.5-2.4 0-2.3-1.9-4.2-4.2-4.2-1.4-.1-2.4-1.3-2.3-2.6.1-1.2 1.1-2.2 2.3-2.3 5 0 9.1 4.1 9.1 9.1 0 1.3-1.1 2.4-2.4 2.4z"/><path class="st1" d="M119.7 78.4l30.2-56.9h-14.6l-.3.6 8.4-30H131l-8 28.8c-.6 2 .6 4.2 2.6 4.7.3.1.7.1 1 .1h2c1.7 0 3 1.3 3.1 2.9 0 .5-.1.9-.3 1.4l-9.9 21.5-1.8 26.9z"/><path d="M119.7 80.8c-1.4 0-2.4-1.1-2.4-2.4v-.2l2.5-36.3h-8.4c-1.4 0-2.4-1.1-2.4-2.5v-.1L111.5-8c.1-1.3 1.2-2.3 2.5-2.3h29.4c.8 0 1.5.4 1.9 1 .5.6.6 1.4.4 2.1l-7.3 26.3h11.4c1.4 0 2.4 1.2 2.4 2.5 0 .4-.1.7-.3 1l-30.2 56.9c-.3.8-1.1 1.3-2 1.3zM113.9 37h8.5c1.4 0 2.4 1.1 2.4 2.5v.2l-1.9 27.5L145.8 24h-10.6c-1.4 0-2.4-1.1-2.4-2.5 0-.2 0-.4.1-.6l7.3-26.3h-23.8L113.9 37z"/><path class="st1" d="M343.8 327L322 348.8c-1.5 1.5-3.9 1.5-5.4 0-1.5-1.5-1.5-3.9 0-5.4l5.8-5.8c1.5-1.5 1.5-3.9 0-5.4-1.5-1.5-3.9-1.5-5.4 0l-14 13.9c-1.5 1.5-3.9 1.5-5.4 0-1.5-1.5-1.5-3.9 0-5.4l30-30 16.2 16.3zm-44.5 33.7l8.2-8.2c1.5-1.5 3.9-1.5 5.4 0 1.5 1.5 1.5 3.9 0 5.4l-8.2 8.2c-1.5 1.5-3.9 1.5-5.4 0-1.5-1.5-1.5-3.9 0-5.4zm-9.1-34.6l5.4-5.4c1.5-1.5 3.9-1.5 5.4 0 1.5 1.5 1.5 3.9 0 5.4l-5.4 5.4c-1.5 1.5-3.9 1.5-5.4 0-1.5-1.4-1.5-3.9 0-5.4zm36.3 25.3l4.2-4.2c1.5-1.5 3.9-1.5 5.4 0 1.5 1.5 1.5 3.9 0 5.4l-4.2 4.2c-1.5 1.5-3.9 1.5-5.4 0-1.5-1.5-1.5-3.9 0-5.4z"/><path class="st1" d="M377.5 322.6c-15.2 9.1-32.6 9.8-32.6 9.8l-1.2-5.4s22.9-4.3 40.1-18.5l-6.3 14.1zM332.8 277c-9.1 15.2-9.8 32.6-9.8 32.6l5.4 1.2s4.3-22.9 18.5-40.1l-14.1 6.3z"/><path class="st1" d="M408.9 246.4s-7.8 41-39.5 52c-1.5.5-3.1.8-4.7.7-1.7-.1-3.6-.7-4.2-2.4L338.3 319l7.1 7.6s40.3-8.5 55.2-37.3c0 0 12.8-16.6 10.4-42.4l-2.1-.5z"/><path d="M344.5 330.2c-1.4 0-2.4-1.1-2.4-2.5 0-1 .7-2 1.7-2.3 30.5-10 51.3-27.1 60.2-49.6 3.7-9.3 5.3-19.2 4.6-29.2-10-.7-20.1.9-29.4 4.7-22.4 9-39.4 29.8-49.4 60.1-.5 1.3-1.9 1.9-3.2 1.4-1.2-.5-1.8-1.7-1.5-2.9 7.3-22.2 22.3-51.3 52.4-63.3 18.1-7.2 33-4.8 33.6-4.7 1 .2 1.8 1 2 2 .1.6 2.5 15.5-4.7 33.6-12 30.2-41 45.2-63.3 52.4 0 .3-.3.4-.6.3z"/><path d="M410.9 246.1c-.9 0-1.6-.7-1.6-1.6 0-.4.2-.9.5-1.2l5.5-5.5c.6-.6 1.7-.6 2.3 0s.6 1.7 0 2.3l-5.5 5.5c-.4.3-.8.5-1.2.5z"/><ellipse transform="rotate(-45 418.665 236.682)" cx="418.7" cy="236.7" rx="4.9" ry="4.9"/><path d="M346.1 349.7c-1.3 0-2.3-1-2.4-2.2l-1.5-18.5-15.8-15.8-18.5-1.5c-1.3-.1-2.4-1.3-2.2-2.6 0-.2.1-.4.1-.6 3.3-9.2 8.6-17.5 15.5-24.4 7.7-7.7 17.2-13.4 27.6-16.6 1.3-.3 2.6.5 3 1.8.3 1.2-.4 2.5-1.5 2.9-9.7 3-18.5 8.2-25.6 15.4-5.6 5.6-10.1 12.3-13.2 19.6l16.1 1.3c.6 0 1.1.3 1.5.7l17 17c.4.4.7 1 .7 1.5l1.3 16.1c7.3-3.1 14-7.6 19.6-13.2 7.2-7.2 12.4-15.9 15.4-25.6.5-1.3 1.9-1.9 3.1-1.5 1.2.4 1.8 1.7 1.5 2.9-3.2 10.5-8.9 20-16.6 27.7-6.9 6.9-15.2 12.2-24.4 15.5-.1 0-.4.1-.7.1z"/><path d="M327.1 330.7c-1.4 0-2.4-1.1-2.4-2.5 0-.6.3-1.3.7-1.7l31.5-31.5c1-.9 2.6-.8 3.5.2.8.9.8 2.3 0 3.3L328.9 330c-.5.4-1.1.7-1.8.7zm59.3-50.5c-6.2 0-11.2-5.1-11.2-11.3 0-6.2 5.1-11.2 11.3-11.2 6.2 0 11.2 5.1 11.2 11.3 0 3-1.2 5.8-3.3 7.9-2.2 2.2-5 3.3-8 3.3zm0-17.6c-3.5 0-6.3 2.9-6.3 6.4 0 3.5 2.9 6.3 6.4 6.3 3.5 0 6.3-2.9 6.3-6.4 0-1.7-.7-3.3-1.9-4.5-1.2-1.1-2.9-1.8-4.5-1.8zm-16.8 29.8c-3.7 0-6.7-3-6.7-6.7s3-6.7 6.7-6.7 6.7 3 6.7 6.7c0 1.8-.7 3.5-1.9 4.7-1.3 1.3-3 2-4.8 2zm0-8.5c-1 0-1.8.8-1.8 1.8s.8 1.8 1.8 1.8c.5 0 .9-.2 1.3-.5.7-.7.7-1.8 0-2.5-.3-.4-.8-.6-1.3-.6z"/><path class="st1" d="M438.2 316.6l2.7-4.7 1.6 3c1.1 2.1 3.5 3.2 5.8 2.7 2.3-.6 3.8-2.6 3.8-4.9l.2-120.3c0-5.6-4.6-10.2-10.2-10.2h-4.8v-10.8h29l.2 149.2-14.4 14.2-6.8-6.5-7.1-11.7zm28-188.1L443 111.6l-3.8 14.3 29 22.1zm-9.4 30.9l-19.4-14.2 1 14.2zm-18.7-63h27.1c1.9 0 3.5 1.6 3.5 3.5v5.8c0 1.9-1.6 3.5-3.5 3.5h-27.1c-1.9 0-3.5-1.6-3.5-3.5v-5.8c0-2 1.6-3.5 3.5-3.5z"/><path d="M452.3 338.2c-.6 0-1.3-.3-1.7-.7l-14-13.7c-.5-.5-.7-1.1-.7-1.8V171.5c0-1.4 1.1-2.4 2.5-2.4h27.9c1.4 0 2.5 1.1 2.5 2.4V322c0 .7-.3 1.3-.7 1.8l-14 13.7c-.6.4-1.2.6-1.8.7zM440.8 321l11.5 11.3 11.5-11.3V174h-23v147z"/><path d="M452.3 317.6c-1.4 0-2.5-1.1-2.5-2.4V171.5c.1-1.4 1.3-2.4 2.6-2.3 1.2.1 2.2 1.1 2.3 2.3v143.6c0 1.4-1 2.5-2.4 2.5z"/><path d="M487.2 177.8c-1.4 0-2.5-1.1-2.5-2.4 0-1.2-1-2.2-2.2-2.2h-60.7c-1.2 0-2.2 1-2.2 2.2.1 1.4-.9 2.5-2.3 2.6-1.4.1-2.5-.9-2.6-2.3v-.3c0-3.9 3.2-7.1 7.1-7.1h60.7c3.9 0 7.1 3.2 7.1 7.1.1 1.3-1 2.4-2.4 2.4z"/><path d="M486 188.8c-8.5 0-15.4-6.9-15.4-15.4.1-1.4 1.3-2.4 2.6-2.3 1.2.1 2.2 1.1 2.3 2.3 0 5.8 4.7 10.5 10.5 10.5s10.5-4.7 10.5-10.5-4.7-10.5-10.5-10.5h-68.1c-5.8 0-10.5 4.7-10.5 10.5s4.7 10.5 10.5 10.5 10.5-4.7 10.5-10.5c.1-1.4 1.3-2.4 2.6-2.3 1.2.1 2.2 1.1 2.3 2.3 0 8.5-6.9 15.4-15.4 15.4s-15.4-6.9-15.4-15.4 6.9-15.4 15.4-15.4H486c8.5 0 15.4 6.9 15.4 15.4s-6.9 15.4-15.4 15.4zm-21.5-75.9h-25c-5 0-9.1-4.1-9.1-9.1v-.2c0-5 4.1-9.1 9.1-9.1h25c5 0 9.1 4.1 9.1 9.1v.2c0 5-4.1 9.1-9.1 9.1zm-25-13.5c-2.3 0-4.2 1.9-4.2 4.2v.2c0 2.3 1.9 4.2 4.2 4.2h25c2.3 0 4.2-1.9 4.2-4.2v-.2c0-2.3-1.9-4.2-4.2-4.2h-25z"/><path d="M466.1 162.9h-.3c-1.3-.2-2.3-1.4-2.1-2.8 2-16.1 1-32.5-3-48.3-.3-1.3.5-2.6 1.8-2.9 1.2-.3 2.4.4 2.9 1.6 4.3 16.4 5.3 33.5 3.2 50.3-.2 1.2-1.3 2.1-2.5 2.1zm-27.6 0c-1.2 0-2.3-.9-2.4-2.1-2.2-16.8-1.1-33.9 3.2-50.3.5-1.3 1.9-1.9 3.1-1.5 1.2.4 1.8 1.7 1.6 2.9-4 15.8-5 32.1-3 48.3.2 1.3-.8 2.6-2.1 2.8l-.4-.1z"/><path d="M466.3 132c-.5 0-1-.1-1.4-.4l-25.4-17.1c-1.2-.7-1.5-2.2-.9-3.4.7-1.2 2.2-1.5 3.4-.8l.2.2 25.4 17.1c1.1.8 1.4 2.3.7 3.4-.4.6-1.2 1-2 1zm.2 17.7c-.5 0-1-.1-1.4-.4l-26.7-17.7c-1.1-.8-1.3-2.3-.5-3.4.7-1 2.1-1.3 3.2-.7l26.7 17.7c1.1.7 1.4 2.3.7 3.4-.4.7-1.2 1.1-2 1.1zm-9.3 12.9c-.5 0-1-.1-1.4-.4l-17.7-11.9c-1.2-.7-1.5-2.2-.9-3.4.7-1.2 2.2-1.5 3.4-.8l.2.1 17.7 11.9c1.1.8 1.4 2.3.7 3.4-.4.7-1.2 1.1-2 1.1z"/><path class="st1" d="M492.6 96.3l-12.2-4 4 12.2z"/><path class="st1" d="M484.4 107c-1.1 0-2-.7-2.3-1.7l-4-12.2c-.4-1.3.3-2.7 1.5-3.1.5-.2 1.1-.2 1.6 0l12.2 4c1.3.4 2 1.8 1.6 3.1-.1.4-.3.7-.6 1l-8.2 8.2c-.6.4-1.2.7-1.8.7zm-.2-10.8l1.2 3.8 2.5-2.6-3.7-1.2z"/><path class="st1" d="M494.5 108.8c-.6 0-1.3-.3-1.7-.7l-6-6c-.9-1-.8-2.6.2-3.5.9-.8 2.3-.8 3.3 0l6 6c1 1 1 2.5 0 3.5-.6.5-1.2.7-1.8.7zM331.2 63.9l-4-12.2 12.2 4z"/><path class="st1" d="M331.2 66.3c-1.1 0-2-.7-2.3-1.7l-4-12.2c-.4-1.3.3-2.7 1.6-3.1.5-.2 1.1-.2 1.6 0l12.2 4c1.3.4 2 1.8 1.6 3.1-.1.4-.3.7-.6 1l-8.2 8.2c-.6.5-1.2.8-1.9.7zm-.2-10.8l1.2 3.8 2.6-2.6-3.8-1.2z"/><path class="st1" d="M341.3 68.2c-.6 0-1.3-.3-1.7-.7l-6-6c-.9-1-.8-2.5.2-3.5.9-.8 2.3-.9 3.3 0l6 6c1 1 1 2.5 0 3.5-.6.4-1.2.7-1.8.7zM37 286.1l12.2-4-4 12.3z"/><path class="st1" d="M45.2 296.8c-.6 0-1.3-.3-1.7-.7l-8.2-8.2c-1-1-.9-2.5 0-3.5.3-.3.6-.5 1-.6l12.2-4c1.3-.4 2.7.3 3.1 1.6.2.5.2 1 0 1.5l-4 12.2c-.4 1-1.3 1.6-2.4 1.7zm-3.7-9.6l2.6 2.6 1.2-3.8-3.8 1.2z"/><path class="st1" d="M35.1 298.7c-1.4 0-2.4-1.1-2.4-2.5 0-.6.3-1.3.7-1.7l6-6c.9-1 2.5-1.1 3.5-.1 1 .9 1.1 2.5.1 3.5l-.2.2-6 6c-.4.3-1 .6-1.7.6zM398 465.9l12.1-4-3.9 12.2z"/><path class="st1" d="M406.2 476.5c-.6 0-1.3-.3-1.7-.7l-8.2-8.2c-1-1-.9-2.5 0-3.5.3-.3.6-.5 1-.6l12.2-4c1.3-.4 2.7.3 3.1 1.6.2.5.2 1 0 1.5l-4 12.2c-.4 1-1.4 1.7-2.4 1.7zm-3.7-9.5l2.6 2.6 1.2-3.8-3.8 1.2z"/><path class="st1" d="M396.1 478.4c-1.4 0-2.4-1.1-2.4-2.5 0-.6.3-1.3.7-1.7l6-6c1-.9 2.6-.8 3.5.2.8.9.8 2.3 0 3.3l-6 6c-.6.5-1.2.7-1.8.7zm4.4-384.1l-12 12 .9 9.7-13 13-9.7-.9-.9-9.7-13.3-3.1 2.3 24.7 27.2 3.3 21.8-21.9z"/><path d="M380.1 147.6h-.5l-25.3-5.1c-1-.2-1.7-.9-1.9-1.9l-5.1-25.3c-.2-.8.1-1.6.7-2.2l25.5-25.5c.6-.6 1.4-.8 2.2-.7l25.4 5.1c1 .2 1.7.9 1.9 1.9l5.1 25.3c.2.8-.1 1.6-.7 2.2l-25.5 25.5c-.5.5-1.1.7-1.8.7zm-23.3-9.6l22.5 4.5 23.6-23.6-4.5-22.5-22.5-4.5-23.6 23.6 4.5 22.5z"/><path d="M376.4 131.5h-.2l-9.7-.9c-1.2-.1-2.1-1-2.2-2.2l-1-9.7c-.1-.7.2-1.5.7-2l13-13c.5-.5 1.3-.8 2-.7l9.7.9c1.2.1 2.1 1 2.2 2.2l1 9.7c.1.7-.2 1.5-.7 2l-13 13c-.5.4-1.1.7-1.8.7zm-7.4-5.7l6.5.6 11.4-11.4-.6-6.5-6.5-.6-11.4 11.4.6 6.5z"/><path d="M405.6 122.1c-.2 0-.4 0-.5-.1l-16.1-3.7c-1.3-.2-2.2-1.5-2-2.8s1.5-2.2 2.8-2l.3.1 16.1 3.7c1.3.3 2.1 1.6 1.8 3-.3 1-1.3 1.8-2.4 1.8zm-17.1-13.3c-1.4 0-2.4-1.1-2.4-2.5 0-.6.3-1.3.7-1.7l12-12c1-.9 2.6-.7 3.4.4.7.9.7 2.2 0 3.1l-12 12c-.4.4-1 .6-1.7.7zm-9.7-1c-1.1 0-2.1-.8-2.4-1.9l-3.7-16.2c-.2-1.3.7-2.6 2-2.8 1.2-.2 2.4.5 2.8 1.7l3.7 16.2c.3 1.3-.5 2.6-1.8 2.9-.2.1-.4.1-.6.1zm-13 13c-.2 0-.4 0-.5-.1l-16.1-3.7c-1.3-.2-2.2-1.5-2-2.8s1.5-2.2 2.8-2l.3.1 16.1 3.7c1.3.3 2.1 1.6 1.8 3-.3 1.1-1.3 1.8-2.4 1.8zm-11 21.7c-1.4 0-2.4-1.1-2.4-2.5 0-.6.3-1.3.7-1.7l12-12c.9-1 2.4-1.1 3.5-.2 1 .9 1.1 2.4.2 3.5l-.2.2-12 12c-.6.4-1.2.7-1.8.7zm25.3 5.1c-1.1 0-2.1-.8-2.4-1.9l-3.7-16.2c-.2-1.3.7-2.6 2-2.8 1.2-.2 2.4.5 2.8 1.7l3.7 16.1c.3 1.3-.5 2.6-1.8 2.9-.2.2-.4.2-.6.2z"/><path class="st1" d="M205.1 247.7V265c0 2.1-1.4 3.9-3.4 4.3-2.3.5-4.6-1-5-3.3-.1-.3-.1-.6-.1-.8v-16.4c0-.4.3-.8.8-.8.1 0 .2 0 .3.1 1.2.6 2.7.3 3.6-.7.4-.4.9-.8 1.4-1.1.8-.4 1.9 0 2.3.8.1.1.1.4.1.6z"/><circle class="st1" cx="199.8" cy="240.1" r="3.2"/><circle class="st1" cx="204" cy="230.8" r="2"/><path class="st1" d="M191.4 222.3h19.5v3.6h-19.5z"/><path d="M200.9 278.5c-6.9 0-12.5-5.6-12.5-12.5v-42.9c-.1-1.4.9-2.5 2.3-2.6 1.4-.1 2.5.9 2.6 2.3V266c0 4.2 3.4 7.6 7.6 7.6 4.2 0 7.6-3.4 7.6-7.6v-42.9c-.1-1.4.9-2.5 2.3-2.6 1.4-.1 2.5.9 2.6 2.3V266c0 6.9-5.6 12.5-12.5 12.5z"/><path d="M215.4 223.1h-29c-1.4 0-2.4-1.1-2.4-2.4V211c0-1.4 1.1-2.4 2.4-2.4h29c1.4 0 2.4 1.1 2.4 2.4v9.7c0 1.3-1.1 2.4-2.4 2.4zm-26.6-4.9h24.1v-4.8h-24.1v4.8z"/><path class="st1" d="M152.9 415.9h9v62.9h-9zm19.5 1.2h56v46h-56zm66.3-1.2h9.1v62.9h-9.1zm-62.3-23.5H224c2.2 0 4 1.8 4 4v5c0 2.2-1.8 4-4 4h-47.6c-2.2 0-4-1.8-4-4v-5c0-2.2 1.8-4 4-4zm29.9 76.2c-.4-.9-1.3-1.5-2.3-1.5h-7.5c-1.4 0-2.4 1.1-2.4 2.5 0 .6.3 1.3.7 1.7l3.7 3.7c1 1 2.5 1 3.5 0l3.7-3.7c.8-.7 1-1.8.6-2.7z"/><path d="M247.8 481.3h-95c-1.4 0-2.4-1.1-2.4-2.5v-97.4c0-1.4 1.1-2.5 2.4-2.5h85.3c1.4 0 2.4 1.1 2.4 2.5v3.5h7.2c1.4 0 2.4 1.1 2.4 2.5v91.3c.1 1.4-.9 2.5-2.3 2.6zm-92.5-4.9h90.1V390h-7.2c-1.4 0-2.4-1.1-2.4-2.5v-3.6h-80.4l-.1 92.5z"/><path d="M222 407.9h-43.4c-4.8 0-8.7-3.9-8.7-8.7 0-4.8 3.9-8.7 8.7-8.7H222c4.8 0 8.7 3.9 8.7 8.7 0 4.8-3.9 8.7-8.7 8.7zm-43.4-12.5c-2.1 0-3.8 1.7-3.8 3.8 0 2.1 1.7 3.8 3.8 3.8H222c2.1 0 3.8-1.7 3.8-3.8 0-2.1-1.7-3.8-3.8-3.8h-43.4zm69.2 12.5h-12.6c-1.4.1-2.5-1-2.6-2.3-.1-1.3.9-2.5 2.3-2.6h12.9c1.4-.1 2.5 1 2.6 2.3.1 1.3-.9 2.5-2.3 2.6h-.3zm0-12.5h-12.6c-1.4.1-2.5-1-2.6-2.3-.1-1.3.9-2.5 2.3-2.6h12.9c1.4.1 2.4 1.3 2.3 2.6-.1 1.2-1.1 2.2-2.3 2.3zm0 6.2h-9c-1.4-.1-2.4-1.3-2.3-2.6.1-1.2 1.1-2.2 2.3-2.3h9c1.4.1 2.4 1.3 2.3 2.6-.1 1.3-1.1 2.2-2.3 2.3zm-82.3-6.2h-12.6c-1.4-.1-2.4-1.3-2.3-2.6.1-1.2 1.1-2.2 2.3-2.3h12.6c1.4.1 2.4 1.3 2.3 2.6-.1 1.2-1.1 2.2-2.3 2.3zm0 12.5h-12.6c-1.4-.1-2.4-1.3-2.3-2.6.1-1.2 1.1-2.2 2.3-2.3h12.6c1.4-.1 2.5 1 2.6 2.3.1 1.3-.9 2.5-2.3 2.6h-.3zm-3.7-6.3h-9c-1.4-.1-2.4-1.3-2.3-2.6.1-1.2 1.1-2.2 2.3-2.3h9c1.4.1 2.4 1.3 2.3 2.6 0 1.3-1 2.2-2.3 2.3zm0 79.7c-1.4 0-2.4-1.1-2.4-2.5v-60.4h-6.5c-1.4-.1-2.4-1.3-2.3-2.6.1-1.2 1.1-2.2 2.3-2.3h9c1.4 0 2.4 1.1 2.4 2.5v62.9c0 1.3-1.1 2.4-2.5 2.4zm76.9 0c-1.4 0-2.4-1.1-2.4-2.5v-62.9c0-1.4 1.1-2.5 2.4-2.5h9c1.4-.1 2.5 1 2.6 2.3.1 1.3-.9 2.5-2.3 2.6h-6.9v60.5c0 1.4-1.1 2.5-2.4 2.5zm-10.3-15.8h-56.2c-1.4 0-2.5-1.1-2.5-2.4V416c0-1.4 1.1-2.5 2.4-2.5h56.2c1.4 0 2.4 1.1 2.4 2.5v47c.2 1.4-.9 2.5-2.3 2.5.1 0 .1 0 0 0zm-53.7-4.9H226v-42.2h-51.3v42.2z"/><path class="st4" d="M199.3 424.4c2.6-.1 6.6 1.4 6.9 4.2.2 2.2-1.6 6-4 5.8-.9-.1-1.5-.9-1.5-1.7-.2-1.1.3-2.3-.4-2.9-1.4-1.2-3.6.9-4.1 1.5-.8.9-2 2.5-1.5 4.4.3 1.3 1.5 1.6 2.7 2.1s2.9 1.1 3.6 1.6c2.4 1.6 4.8 4 4.4 8.2s-5.2 9.1-10 7.4c-2.6-1-4.4-3.4-4.7-6.2-.2-1.9.3-4 1.9-4.1 3.5-.4 2.2 4.8 4.9 5 2.2.2 4.3-3.4 3.4-6.1-.6-1.7-2.6-2.3-4.7-3-3.2-1-6.6-2.5-6.3-7.1.3-4.1 4.5-8.1 8.4-9.1h1z" id="KAKbRw"/><path class="st1" d="M46.6 470.3H13.9v19.2h3.6v.4c0 7 5.7 12.8 12.8 12.8S43 496.9 43 489.9v-.4h3.6v-19.2zm-7.8-73.9c-2.9-.4-5.9-.2-8.8.6-1.8.5-2.9 2.4-2.3 4.3.4 1.4 1.6 2.3 3 2.4.5 0 1 .1 1.5.2 9.1 1.5 16.2 8.8 17.6 17.9v.3c.5 3.8 5.8 4.2 6.7.6 2.8-11.4-4.1-23-15.5-25.9-.7-.2-1.5-.3-2.2-.4z"/><path d="M46.6 472.8H13.9c-1.3 0-2.4-1.1-2.4-2.5-.1-8.4-3.3-16.4-9.1-22.5-6.9-7.4-10.6-17.4-10.1-27.5.9-21 18.7-37.4 39.7-36.5s37.4 18.7 36.5 39.7c-.4 9.1-4 17.7-10.2 24.4-5.8 6.1-9 14.1-9.1 22.5-.1 1.3-1.2 2.4-2.6 2.4zm-30.4-4.9h28c.6-8.7 4.3-17 10.3-23.4 12.5-13.5 11.7-34.5-1.7-47s-34.5-11.7-47 1.7C-6 412-6 431.8 5.8 444.5c6.1 6.4 9.8 14.6 10.4 23.4z" id="_Group_11"/><path d="M46.6 492H13.9c-1.4 0-2.4-1.1-2.4-2.5v-19.2c.1-1.4 1.3-2.4 2.6-2.3 1.2.1 2.2 1.1 2.3 2.3v16.8h27.9v-16.7c.1-1.4 1.3-2.4 2.6-2.3 1.2.1 2.2 1.1 2.3 2.3v19.1c-.1 1.4-1.2 2.5-2.6 2.5z" id="_Group_12"/><path d="M44 482.4H16.5c-1.4-.1-2.4-1.3-2.3-2.6.1-1.2 1.1-2.2 2.3-2.3H44c1.4.1 2.4 1.3 2.3 2.6-.1 1.2-1.1 2.2-2.3 2.3z" id="_Group_13"/><path d="M33.4 472.5c-1.4 0-2.4-1.1-2.4-2.5v-.5l5-25.2c-2.2-.1-4.2-1.1-5.8-2.7-1.5 1.6-3.6 2.5-5.8 2.7l5 25.2c.3 1.3-.6 2.6-1.9 2.9-1.3.3-2.6-.6-2.9-1.9l-5.2-26.1h-2c-3.1 0-5.6-2.5-5.6-5.6v-.3c0-3.1 2.5-5.6 5.6-5.6 2.7 0 5 1.9 5.5 4.5l.4 2.1h.4c1.2 0 2.4-.6 3.2-1.5l.1-.1-2.2-2.7c-1.2-1.5-1.8-3.3-1.8-5.2 0-3.7 3-6.6 6.6-6.6h1.1c3.7 0 6.6 3 6.6 6.6 0 1.9-.6 3.7-1.8 5.1l-2.2 2.7.1.1c.8.9 1.9 1.5 3.1 1.5h.5l.4-2.1c.6-3.1 3.6-5 6.6-4.4 2.6.5 4.5 2.8 4.5 5.5v.3c0 3.1-2.5 5.6-5.6 5.6h-2l-5.2 26.1c-.1 1.2-1.1 2.1-2.3 2.1zm8.6-33h1c.4 0 .7-.3.7-.7v-.3c0-.4-.3-.7-.7-.8-.4 0-.7.3-.8.6l-.2 1.2zm-24.5-1.8c-.4 0-.7.3-.7.7v.3c0 .4.3.7.7.7h1l-.2-1.2c-.1-.3-.4-.5-.8-.5zm12.2-9.4c-.9 0-1.7.8-1.7 1.7 0 .7.3 1.4.7 2l1.5 2 1.6-1.9c.5-.6.7-1.3.7-2 0-1-.8-1.7-1.8-1.8h-1z" id="_Group_14"/><path d="M30.2 503.9c-7.9 0-14.3-6.4-14.4-14.4.1-1.4 1.3-2.4 2.6-2.3 1.2.1 2.2 1.1 2.3 2.3.2 5.2 4.5 9.3 9.8 9.2 5-.2 9-4.2 9.2-9.2.1-1.4 1.3-2.4 2.6-2.3 1.2.1 2.2 1.1 2.3 2.3 0 7.9-6.4 14.4-14.4 14.4z" id="_Group_15"/><circle class="st5" cx="65.8" cy="127.8" r="4.7"/><path class="st1" d="M79 136.5v8.2H-2.8v-6.2l2.1-9.1 14.5-11.2s10.6 6.2 10.9 18.2h19.6c11.9 0 21.6-9.7 21.6-21.6l10.7-7.5 2.4 29.2"/><path d="M63.8 135.5c-4.2 0-7.7-3.4-7.7-7.7 0-4.2 3.4-7.7 7.7-7.7s7.7 3.4 7.7 7.7c0 4.2-3.5 7.7-7.7 7.7zm0-10.5c-1.5 0-2.8 1.2-2.8 2.8 0 1.5 1.2 2.8 2.8 2.8 1.5 0 2.8-1.2 2.8-2.8 0-1.5-1.2-2.8-2.8-2.8zm-41.3 20.2c-1.4 0-2.5-1.1-2.5-2.4v-4.4c0-11.8-8.8-15.7-9.2-15.8-1.2-.6-1.7-2.1-1.1-3.3.5-1.1 1.8-1.7 3-1.2.5.2 12.2 5.2 12.2 20.4v4.3c0 1.3-1.1 2.4-2.4 2.4z"/><path d="M77 147.1H-5.6c-1.4 0-2.4-1.1-2.5-2.4v-5.8c0-7.9 4.8-15 12.1-18l23.8-9.8c.8-4.5 4.7-7.7 9.2-7.7h3.9c1.4 0 2.5 1.1 2.5 2.4 0 4.5 3.7 8.2 8.2 8.2h8.9c.3 0 .5-.1.6-.4l.8-1.5c2.5-4.6 7.4-7.5 12.6-7.3 2.7.1 4.8 2.3 4.8 4.9v34.8c.1 1.5-1 2.6-2.3 2.6zm-80.2-4.8h77.7v-32.4c-3.4-.1-6.6 1.7-8.2 4.7l-.8 1.5c-1 1.8-2.9 2.9-4.9 2.9h-8.8c-6.3.1-11.8-4.4-13-10.7H37c-2.5 0-4.5 2-4.5 4.6 0 1-.6 1.9-1.5 2.3L5.8 125.5c-5.5 2.2-9 7.6-9 13.5v3.3z"/><path d="M21.9 123.1c-.8 0-1.5-.4-2-1.1l-4.8-7c-.9-1-.8-2.6.3-3.5 1-.9 2.6-.8 3.5.3.1.1.2.3.3.4l4.8 7c.8 1.1.5 2.6-.6 3.4-.6.4-1.1.5-1.5.5zm5.4-2.4c-.8 0-1.5-.4-2-1.1l-4.8-7c-.9-1-.8-2.6.3-3.5 1-.9 2.6-.8 3.5.3.1.1.2.3.3.4l4.8 7c.8 1.1.5 2.6-.6 3.4-.5.4-1 .5-1.5.5zm49.6-6.3c-1.3 0-2.4-1.1-2.4-2.4v-3.6c0-3.7 3-6.6 6.6-6.6 1.4-.1 2.5 1 2.6 2.3.1 1.3-.9 2.5-2.3 2.6h-.3c-1 0-1.7.8-1.7 1.7v3.6c0 1.3-1.1 2.4-2.5 2.4zm-39.1 5.2h-.5c-.2 0-.3-.1-.5-.1-.2-.1-.3-.1-.4-.2-.1-.1-.3-.2-.4-.3-.1-.1-.2-.2-.3-.4-.1-.1-.2-.3-.2-.4-.1-.1-.1-.3-.1-.5v-1c0-.2.1-.3.1-.5.1-.3.3-.6.5-.8.1-.1.2-.2.4-.3.1-.1.3-.2.4-.2.1-.1.3-.1.5-.1.3-.1.7-.1 1 0 .2 0 .3.1.5.1.1.1.3.1.4.2.1.1.3.2.4.3.1.1.2.2.3.4.1.1.2.3.2.4.1.1.1.3.1.5v1c0 .2-.1.3-.1.5-.1.1-.1.3-.2.4-.1.1-.2.3-.3.4-.1.1-.2.2-.4.3-.1.1-.3.2-.4.2-.1.1-.3.1-.5.1-.2.1-.3.1-.5 0zM77 153.8H-5.6c-1.4 0-2.4-1.1-2.5-2.4v-6.7c0-1.4 1.1-2.4 2.4-2.4s2.4 1.1 2.5 2.4v4.2h77.7v-4.2c.1-1.4 1.3-2.4 2.6-2.3 1.2.1 2.2 1.1 2.3 2.3v6.7c0 1.3-1.1 2.4-2.4 2.4z"/><path class="st1" d="M263.8 371h6v26.7h-6zm35.2 34.1h-6l-7.2-3.2 7.2-4.2v-19.3h6zm27.9 7h-6l-7.2-3.2 7.2-4.2v-19.3h6z"/><path d="M357 414.5h-47.8c-1.4 0-2.5-1.1-2.5-2.4v-6.8c.1-1.4 1.3-2.4 2.6-2.3 1.2.1 2.2 1.1 2.3 2.3v4.4h41l-6.5-10.5c-.5-.8-.5-1.9.1-2.7l6.1-8.6h-31.7c-1.4-.1-2.4-1.3-2.3-2.6.1-1.2 1.1-2.2 2.3-2.3H357c1.4 0 2.4 1.1 2.4 2.5 0 .5-.2 1-.4 1.4l-7.9 11.1 7.9 12.9c.7 1.2.3 2.7-.8 3.4-.3.1-.8.2-1.2.2zm-64.1-14.3h-30.4c-1.4 0-2.5-1.1-2.5-2.4V371c0-1.4 1.1-2.5 2.4-2.5h30.4c1.4 0 2.5 1.1 2.5 2.4v26.7c0 1.5-1.1 2.6-2.4 2.6zm-28-4.9h25.5v-21.9h-25.5v21.9z"/><path d="M320.3 407h-38.9c-1.4 0-2.5-1.1-2.5-2.4v-6.4c.1-1.4 1.3-2.4 2.6-2.3 1.2.1 2.2 1.1 2.3 2.3v4h34v-21.9h-23.6c-1.3.1-2.5-.9-2.6-2.3-.1-1.3.9-2.5 2.3-2.6h26.3c1.4 0 2.5 1.1 2.5 2.4v26.7c.1 1.4-1 2.5-2.4 2.5.1 0 .1 0 0 0zM262 425.5c-1.4 0-2.5-1.1-2.5-2.4v-55c.1-1.4 1.3-2.4 2.6-2.3 1.2.1 2.2 1.1 2.3 2.3v55c0 1.3-1.1 2.4-2.4 2.4z"/><path d="M281.5 407c-1.4 0-2.4-1.1-2.4-2.5 0-.9.5-1.7 1.2-2.1l11.4-6.8c1.1-.8 2.6-.5 3.4.6.8 1.1.5 2.6-.6 3.4l-.1.1-.2.1-11.4 6.8c-.4.3-.9.4-1.3.4zm27.7 6.7c-1.4 0-2.4-1.1-2.4-2.5 0-.9.4-1.6 1.2-2.1l11.1-6.7c1.1-.8 2.6-.5 3.4.7.8 1.1.5 2.6-.7 3.4l-.2.1-11.1 6.7c-.4.3-.9.4-1.3.4zm-30.9-30.9c-2.7-.6-3-1-3-1.8s.7-1.2 1.8-1.2 2.1.4 2.9 1c.3.2.5.2.8.2.8 0 1.5-.7 1.5-1.5 0-.5-.3-1-.7-1.3-1.4-.9-2.9-1.4-4.6-1.3-3 0-5.1 1.8-5.1 4.4 0 2.8 1.8 3.7 4.9 4.5 2.6.6 2.8 1.1 2.8 1.7s-.8 1.3-2 1.3c-1.3 0-2.6-.5-3.6-1.3-.6-.6-1.6-.6-2.2 0-.6.6-.6 1.6 0 2.2 0 0 .1.1.2.1l.1.1c1.6 1.2 3.4 1.8 5.4 1.8 3.2 0 5.3-1.8 5.3-4.5s-2.1-3.8-4.5-4.4zm28.9 2.2c-.3-.7-1-1.2-1.8-1.2h-.1c-.8 0-1.5.5-1.8 1.2l-5.1 11.3c-.1.2-.2.5-.2.7 0 .8.7 1.5 1.5 1.5.7 0 1.3-.4 1.5-1l1-2.4h6.1l1 2.3c.2.7.9 1.1 1.5 1.1.9 0 1.5-.7 1.5-1.5 0-.2-.1-.5-.2-.7l-4.9-11.3zm-.1 7.2h-3.6l1.8-4.1 1.8 4.1zm33.6-1.5h-.2c-.6 0-1.1.3-1.4.8l-3.8 6-3.8-6c-.3-.5-.9-.8-1.5-.8h-.2c-.9 0-1.6.7-1.6 1.6v11.5c0 .9.7 1.6 1.6 1.6.9 0 1.6-.7 1.6-1.6v-6.9l2.6 3.9c.4.7 1.3 1 2.1.6.3-.1.5-.4.6-.6l2.6-3.9v6.9c0 .9.7 1.6 1.6 1.6.9 0 1.6-.7 1.6-1.6v-11.5c-.2-.9-.9-1.6-1.8-1.6z"/><path class="st1" d="M241.2 12.6c3.4 2.8 1 4.9-1 6-1.5.9-2.1 2.8-1.2 4.3.1.2.3.5.5.7 1.8 1.8 1.8 4.8 0 6.7l-.5.5 3.5 3.5 6.3-6.3-.6-.6 2-3-.9-7.8-1-9.7-9.3-3.8-9.1 6.5 3.1 5.8s3.1-7 8.2-2.8zm82.4 89s-3.1 7-8.2 2.8c-3.4-2.8-1-4.9 1-6 1.5-.9 2-2.9 1.1-4.5-.1-.2-.3-.5-.5-.6l-3.3-3.3c-2.5-2.5-2.5-6.7 0-9.2l.3-.3-3.5-3.5-6.3 6.3 1.4 1.4-2.9 4.3 4.6 11.5 1 9.7 9.3 3.9 9.1-6.5-3.1-6zm-76.5-20.2l-4.6-4.6-3.5 3.6c2.5 2.5 2.5 6.7 0 9.2l-1.6 1.5c-1.3 1.2-1.3 3.3-.1 4.6.2.2.4.4.6.5 2 1.1 4.4 3.2 1 6-5.1 4.2-8.2-2.8-8.2-2.8l-3.2 5.8 9.1 6.5 9.3-3.9 1-9.7 4.6-11.5-3.9-5.9-.5.7zm57.1-53.3l6.3 6.3 3.5-3.5-.3-.3c-1.8-1.8-1.8-4.8 0-6.7l.2-.2c1.2-1.2 1.2-3.3 0-4.5-.2-.2-.4-.4-.7-.5-2-1.1-4.4-3.2-1-6 5.1-4.2 8.2 2.8 8.2 2.8l3.2-5.9-9.1-6.5-9.4 3.9-1 9.7-.9 7.8 1.9 2.8-.9.8zm-19.3-1.4c-3.1-.4-6.2-.2-9.2.7-3.8 1.1-3.2 6.6.8 7 .5 0 1 .1 1.6.2 9.5 1.6 16.9 9.2 18.4 18.7v.3c.5 3.9 6 4.4 7 .6 3-11.9-4.3-24-16.2-27-.8-.3-1.6-.4-2.4-.5z"/><path d="M303.1 107.9h-52.4c-1.4 0-2.4-1.1-2.4-2.4v-22c-15.7-15.8-15.5-41.4.3-57s41.4-15.5 57 .3c15.5 15.7 15.5 41 0 56.7v22c-.1 1.3-1.2 2.4-2.5 2.4zm-50-4.8h47.5V82.5c0-.7.3-1.3.8-1.8 14.1-13.5 14.6-36 1.1-50.1s-36-14.6-50.1-1.1c-14.1 13.5-14.6 36-1.1 50.1.3.4.7.7 1.1 1.1.5.5.8 1.1.8 1.8l-.1 20.6z"/><path d="M268.6 77.9c-.6 0-1.3-.3-1.7-.7l-8.8-8.8c-.9-1-.8-2.6.2-3.5.9-.8 2.3-.8 3.3 0l8.8 8.8c1 1 1 2.5 0 3.5-.5.4-1.1.7-1.8.7z"/><path d="M259.9 77.9c-1.4 0-2.4-1.1-2.4-2.5 0-.6.3-1.3.7-1.7l8.8-8.8c1-.9 2.6-.8 3.5.2.8.9.8 2.3 0 3.3l-8.8 8.8c-.6.4-1.2.7-1.8.7zm33.9 0c-.6 0-1.3-.3-1.7-.7l-8.8-8.8c-.9-1-.8-2.6.2-3.5.9-.8 2.3-.8 3.3 0l8.8 8.8c1 1 1 2.5 0 3.5-.5.4-1.1.7-1.8.7z"/><path d="M285.1 77.9c-1.4 0-2.4-1.1-2.4-2.5 0-.6.3-1.3.7-1.7l8.8-8.8c1-.9 2.6-.8 3.5.2.8.9.8 2.3 0 3.3l-8.8 8.8c-.5.4-1.2.7-1.8.7zm-21.3 30c-1.4 0-2.5-1.1-2.5-2.4V93.7c.1-1.4 1.3-2.4 2.6-2.3 1.2.1 2.2 1.1 2.3 2.3v11.8c0 1.3-1.1 2.4-2.4 2.4zm12.9 0c-1.4 0-2.5-1.1-2.5-2.4V93.7c.1-1.4 1.3-2.4 2.6-2.3 1.2.1 2.2 1.1 2.3 2.3v11.8c.1 1.3-1 2.4-2.4 2.4zm13 0c-1.4 0-2.5-1.1-2.5-2.4V93.7c.1-1.4 1.3-2.4 2.6-2.3 1.2.1 2.2 1.1 2.3 2.3v11.8c0 1.3-1.1 2.4-2.4 2.4zm-45.6-69.4c-.6 0-1.3-.3-1.7-.7l-5-5c-5.2 4.3-12.9 3.7-17.2-1.5s-3.7-12.9 1.5-17.2c1.8-1.5 4.1-2.5 6.5-2.8C229 4.6 235-.2 241.7.6c6.7.8 11.5 6.8 10.7 13.5-.3 2.4-1.2 4.6-2.7 6.4l4.2 4.2c.9 1 .8 2.6-.2 3.5-.9.8-2.3.8-3.3 0l-5.9-5.9c-1-1-1-2.5 0-3.5l.2-.2c3.2-2.5 3.8-7 1.4-10.2-2.5-3.2-7-3.8-10.2-1.4-2 1.5-3.1 4-2.8 6.6.1 1.3-.8 2.6-2.2 2.7h-.5c-4-.4-7.6 2.5-8 6.5-.4 4 2.5 7.6 6.5 8 2.2.2 4.4-.5 5.9-2.1.2-.2.5-.5.7-.8.8-1.1 2.4-1.3 3.4-.5l.2.2 6.7 6.7c1 1 1 2.5 0 3.5-.5.5-1.1.7-1.7.7zm65.4 0c-1.4 0-2.4-1.1-2.4-2.5 0-.6.3-1.3.7-1.7l6.8-6.8c1-1 2.5-1 3.5 0 .1.1.1.2.2.2.2.3.4.5.7.8 2.9 2.9 7.5 2.9 10.3 0s2.9-7.5 0-10.3c-1.6-1.6-3.8-2.3-6-2.1-1.3.1-2.6-.8-2.7-2.2v-.5c.5-4-2.4-7.7-6.4-8.2-4-.5-7.7 2.4-8.2 6.4-.3 2.6.8 5.2 3 6.8 1.1.8 1.3 2.4.5 3.4-.1.1-.1.2-.2.2l-5.4 5.4c-1 .9-2.6.8-3.5-.2-.8-.9-.8-2.3 0-3.3l3.6-3.6c-4.3-5.2-3.7-12.9 1.5-17.2s12.9-3.7 17.2 1.5c1.5 1.8 2.5 4.1 2.8 6.5 6.7.8 11.5 6.8 10.7 13.5s-6.8 11.5-13.5 10.7c-2.4-.3-4.6-1.2-6.4-2.7l-5 5c-.5.7-1.1.9-1.8.9zm6.5 75c-6.7 0-12.2-5.5-12.2-12.2 0-2.8 1-5.6 2.8-7.8l-4.2-4.2c-.9-1-.8-2.6.2-3.5.9-.8 2.3-.8 3.3 0l5.9 5.9c1 1 1 2.5 0 3.5l-.2.2c-3.2 2.4-3.9 7-1.5 10.2 2.4 3.2 7 3.9 10.2 1.5 2.1-1.5 3.2-4.1 2.9-6.6-.1-1.3.8-2.6 2.2-2.7h.6c4 .4 7.6-2.5 8-6.5.4-4-2.5-7.6-6.5-8-2.2-.2-4.4.5-5.9 2.1-.2.2-.5.5-.7.8-.8 1.1-2.4 1.3-3.4.5-.1-.1-.2-.2-.3-.2l-9.6-9.9c-1.1-.8-1.3-2.3-.5-3.4s2.3-1.3 3.4-.5c.2.1.4.3.5.5l7.9 8.1c5.2-4.3 12.9-3.6 17.2 1.6 4.3 5.2 3.6 12.9-1.6 17.2-1.8 1.5-4.1 2.5-6.4 2.7-.7 6.1-5.9 10.7-12.1 10.7zm-78.2 0c-6.2 0-11.4-4.7-12.1-10.8-6.7-.8-11.5-6.8-10.7-13.5s6.8-11.5 13.5-10.7c2.3.3 4.5 1.2 6.4 2.7l7.9-8.1c.9-1 2.5-1 3.5-.1.9.9 1 2.3.2 3.3l-.2.2-9.6 9.9c-.5.5-1.2.8-1.9.7-.7-.1-1.4-.4-1.8-1-2.4-3.2-7-3.9-10.2-1.5s-3.9 7-1.5 10.2c1.5 2.1 4.1 3.2 6.6 2.9 1.3-.1 2.6.8 2.7 2.2v.5c-.5 4 2.4 7.7 6.5 8.1 4 .5 7.7-2.4 8.1-6.5.3-2.6-.8-5.2-2.9-6.7-1.1-.8-1.3-2.4-.5-3.4.1-.1.2-.2.2-.3l7-6.8c.9-1 2.5-1 3.5-.1s1 2.5.1 3.5l-.2.2-5.2 5c4.3 5.2 3.6 12.9-1.6 17.2-2.2 1.9-5 2.9-7.8 2.9z"/><path class="st1" d="M344 471.3h-3.7v6.1h-70.7v8.4h70.7v-4.2l18 9.9 16.6-13.7h-24.4c-3.6 0-6.5-2.9-6.5-6.5z"/><path d="M340.2 489.5h-70.7c-1.4 0-2.5-1.1-2.5-2.4v-18.4c0-1.4 1.1-2.5 2.4-2.5h70.7c1.4 0 2.5 1.1 2.5 2.4V487c.1 1.4-1 2.5-2.4 2.5.1 0 .1 0 0 0zm-68.2-4.9h65.8v-13.5H272v13.5z"/><path d="M282.3 489.5c-1.4 0-2.5-1.1-2.5-2.4v-18.4c-.1-1.4.9-2.5 2.3-2.6 1.4-.1 2.5.9 2.6 2.3V487c.1 1.4-1 2.5-2.4 2.5zm75.9 4.5c-.7 0-1.4-.3-1.8-.8 0-.1-5.7-6.2-14.1-6.2-1.4-.1-2.4-1.3-2.3-2.6.1-1.2 1.1-2.2 2.3-2.3 5.8.1 11.4 2.2 15.9 6 5.1-4.9 11.5-8.2 18.4-9.5v-1.5c-7-1.1-13.5-4.5-18.5-9.5-4.4 3.8-10 5.9-15.8 6-1.4-.1-2.4-1.3-2.3-2.6.1-1.2 1.1-2.2 2.3-2.3 8.5 0 14-6.1 14.1-6.2.9-1 2.5-1.1 3.5-.2l.3.3c.1.1 7 9 19 9.9 1.3.1 2.3 1.2 2.3 2.4v5.8c0 1.3-.9 2.3-2.2 2.4-11.4 1.1-19.1 9.9-19.1 10-.6.7-1.2 1-2 .9z"/><path d="M357.6 482.6c-2.6-.1-4.7-2.4-4.6-5 .1-2.5 2.1-4.5 4.6-4.6 2.6.1 4.7 2.4 4.6 5-.1 2.5-2.1 4.5-4.6 4.6zm0-4.9v.2c.1 0 .1 0 .1-.1 0 0 0-.1-.1-.1zm0 0c-.1 0-.1 0-.1.1l.1.1v-.2z"/><path d="M379 480.3h-21.4c-1.4-.1-2.4-1.3-2.3-2.6.1-1.2 1.1-2.2 2.3-2.3H379c1.4.1 2.4 1.3 2.3 2.6-.1 1.2-1.1 2.2-2.3 2.3z"/><path class="st1" d="M362.8 435.7c-1 .5-2.1.8-3.2.8h-57.1c-2.1 4.7-6.3 8.1-11.3 9.3v.6h-19.7c2.7 8.8 12 13.7 20.8 11 4.5-1.4 8.3-4.7 10.2-9h57.1c3.7 0 6.8-3 6.8-6.8-.1-2.5-1.5-4.7-3.6-5.9z"/><path d="M287.4 460.1c-8.4 0-15.8-5.5-18.2-13.6-.4-1.3.4-2.7 1.6-3 .2-.1.5-.1.7-.1h17.3v-4.7h-17.3c-1.4 0-2.4-1.1-2.4-2.5 0-.2 0-.5.1-.7 3-10.1 13.5-15.8 23.6-12.8 4.8 1.4 8.9 4.7 11.3 9.1h55.5c5.1 0 9.2 4.1 9.2 9.2s-4.1 9.2-9.2 9.2H304c-3.4 6.2-9.7 9.9-16.6 9.9zm-12.2-11.8c4 6.7 12.7 8.9 19.4 5 2.5-1.5 4.5-3.7 5.7-6.4.4-.9 1.3-1.4 2.2-1.4h57.1c2.4 0 4.4-1.9 4.4-4.4s-1.9-4.4-4.4-4.4h-57c-1 0-1.8-.6-2.2-1.5-3.2-7.1-11.5-10.4-18.7-7.2-2.7 1.2-4.9 3.2-6.4 5.7h16c1.4 0 2.5 1.1 2.5 2.4v9.6c0 1.4-1.1 2.5-2.4 2.5l-16.2.1z"/><path d="M357.6 443.5h-.5c-.2 0-.3-.1-.5-.1-.1-.1-.3-.1-.4-.2-.1-.1-.3-.2-.4-.3-1-.9-1-2.5-.1-3.4.7-.7 1.8-1 2.7-.6.1.1.3.1.4.2.1.1.3.2.4.3.5.5.7 1.1.7 1.7 0 .6-.3 1.3-.7 1.7-.1.1-.2.2-.4.3-.1.1-.3.2-.4.2-.1.2-.5.2-.8.2z"/><path class="st1" d="M193.4 4.5l.2-.1v-1c0-7.4-6-13.3-13.3-13.3-4.4 0-8.4 2.1-10.9 5.7 7.2.2 12.9 6.1 12.9 13.3v1l-.2.1c7.4.1 13.2 6.1 13.2 13.4 0 2.7-.9 5.3-2.4 7.6h.4c7.4 0 13.4-5.9 13.4-13.2 0-7.4-5.9-13.4-13.3-13.5z"/><path d="M195.1 32.9h-23.8c-8.7 0-15.8-7-15.8-15.8 0-6.8 4.4-12.9 10.9-15 .3-8.7 7.7-15.5 16.4-15.2 8 .3 14.6 6.6 15.1 14.7 8.6 1.6 14.2 9.8 12.7 18.4-1.4 7.5-7.9 12.9-15.5 12.9zm-26-26.4c-5.9 1.3-9.6 7.1-8.3 13 1.1 4.9 5.4 8.4 10.5 8.5h23.8c6 0 10.9-4.9 10.9-10.9s-4.9-10.9-10.9-10.9c-2.2 0-4.4.7-6.3 2-1.2.7-2.7.3-3.4-.8-.6-1-.4-2.4.6-3.2 2.1-1.5 4.5-2.4 7-2.7-.7-6-6.1-10.2-12.1-9.5-5.4.7-9.5 5.2-9.6 10.7 0 .4 0 .7.1 1.1.1 1.3-.8 2.5-2.2 2.7h-.1z"/><path class="st1" d="M475.7 392.3l2 6.2c.2.5.7.9 1.2.9h6.6c.7 0 1.3.6 1.3 1.3 0 .4-.2.8-.5 1l-5.2 3.9c-.5.3-.6.9-.5 1.5l2 6.2c.2.7-.2 1.4-.8 1.6-.4.1-.8.1-1.2-.2l-5.3-3.9c-.5-.3-1.1-.3-1.5 0l-5.3 3.9c-.6.4-1.4.3-1.8-.3-.2-.3-.3-.8-.2-1.2l2-6.2c.2-.5 0-1.1-.5-1.5l-5.3-3.9c-.6-.4-.7-1.2-.3-1.8.2-.3.6-.5 1-.5h6.6c.6 0 1.1-.4 1.2-.9l2-6.2c.2-.7.8-1.1 1.5-1 .5.2.9.6 1 1.1zm-66.4-81.9l2 6.2c.2.5.7.9 1.2.9h6.6c.7 0 1.3.6 1.3 1.3 0 .4-.2.8-.5 1l-5.3 3.9c-.5.3-.6.9-.5 1.5l2 6.2c.2.7-.2 1.4-.8 1.6-.4.1-.8.1-1.2-.2l-5.2-3.9c-.5-.3-1.1-.3-1.5 0l-5.3 3.9c-.6.4-1.4.3-1.8-.3-.2-.3-.3-.8-.2-1.2l2-6.2c.2-.5 0-1.1-.5-1.5l-5.3-3.9c-.6-.4-.7-1.2-.3-1.8.2-.3.6-.5 1-.5h6.6c.6 0 1.1-.4 1.2-.9l2-6.2c.2-.7.9-1.1 1.6-.9.4.2.7.6.9 1zM126.8 89.7l2 6.2c.2.5.7.9 1.2.9h6.6c.7 0 1.3.6 1.3 1.3 0 .4-.2.8-.5 1l-5.3 3.8c-.5.3-.6.9-.5 1.4l2 6.2c.2.7-.2 1.4-.8 1.6-.4.1-.8.1-1.2-.2l-5.3-3.9c-.5-.3-1.1-.3-1.5 0l-5.3 3.9c-.6.4-1.4.3-1.8-.3-.2-.3-.3-.8-.2-1.2l2-6.2c.2-.5 0-1.1-.4-1.4l-5.3-3.9c-.6-.4-.7-1.2-.3-1.8.2-.3.6-.5 1-.5h6.6c.6 0 1.1-.4 1.2-.9l2-6.2c.2-.7.9-1.1 1.6-1 .4.3.8.7.9 1.2zm361.8 129.9l.9 3.9c.3 1.2 1.2 2.1 2.3 2.3l3.9.9c.6 0 1 .4 1 1s-.4 1-1 1l-3.9.9c-1.2.3-2.1 1.2-2.3 2.3l-.9 3.9c0 .6-.4 1-1 1s-1-.4-1-1l-.9-3.9c-.3-1.2-1.2-2.1-2.3-2.3l-3.9-.9c-.6 0-1-.4-1-1s.4-1 1-1l3.9-.9c1.2-.3 2.1-1.2 2.3-2.3l.9-3.9c0-.6.4-1 1-1s1 .4 1 1zM464 486.9l-.1-.2h-13.4c-4.9 9.4-16.5 13-25.8 8.1-4.5-2.4-7.9-6.4-9.4-11.3-3.1 10.1 2.5 20.8 12.6 23.9 8.8 2.7 18.3-1.2 22.6-9.4H464c4.9 9.4 16.5 12.9 25.8 8 6.3-3.3 10.2-9.8 10.2-16.9v-1.6c-.7-10-9-17.7-19-17.7v12.7c-.1 9.2-12.6 12.5-17 4.4zm-13.3-24.1h13v6.9h-13z"/><path d="M480.9 510.3c-7.5 0-14.4-3.9-18.4-10.2h-10.6c-6.3 10.1-19.5 13.3-29.7 7-10.1-6.3-13.3-19.5-7-29.7 3.9-6.4 10.9-10.2 18.3-10.2h47.3c11.9 0 21.6 9.7 21.6 21.6.1 11.9-9.6 21.5-21.5 21.5zm-30.4-15.1H464c.9 0 1.7.5 2.2 1.3 4.3 8.2 14.4 11.3 22.5 7 8.2-4.3 11.3-14.4 7-22.5-2.9-5.5-8.6-8.9-14.8-8.9h-47.4c-9.2 0-16.7 7.5-16.7 16.7s7.5 16.7 16.7 16.7c6.2 0 11.9-3.4 14.8-8.9.5-.9 1.3-1.4 2.2-1.4z"/><path d="M460.4 492.5c-1.4 0-2.4-1.1-2.4-2.5 0-.6.3-1.3.7-1.7l3.9-3.9c1-.9 2.6-.8 3.5.2.8.9.8 2.3 0 3.3l-3.9 3.9c-.6.4-1.2.7-1.8.7zm-10.3 0c-1.4 0-2.4-1.1-2.4-2.5 0-.6.3-1.3.7-1.7l3.9-3.9c1-.9 2.6-.8 3.5.2.8.9.8 2.3 0 3.3l-3.9 3.9c-.5.4-1.1.7-1.8.7zm13.6-20.4h-13c-1.4 0-2.5-1.1-2.5-2.4v-6.9c0-1.4 1.1-2.5 2.4-2.5h13c1.4 0 2.5 1.1 2.5 2.4v6.9c.1 1.4-1 2.5-2.4 2.5zm-10.5-4.9h8.1v-2h-8.1v2z"/><path d="M479 472.1c-1.4 0-2.5-1.1-2.5-2.4v-11.5c0-4.7-3.8-8.4-8.4-8.4-4.6 0-8.4 3.8-8.4 8.4v4.6c-.1 1.4-1.3 2.4-2.6 2.3-1.2-.1-2.2-1.1-2.3-2.3v-4.6c-.2-7.4 5.6-13.5 13-13.7 7.4-.2 13.5 5.6 13.7 12.9v12.2c-.1 1.4-1.2 2.5-2.5 2.5zm-46.4 26.3c-1.4 0-2.5-1.1-2.5-2.4v-14.4c.1-1.4 1.3-2.4 2.6-2.3 1.2.1 2.2 1.1 2.3 2.3V496c0 1.3-1.1 2.4-2.4 2.4z"/><path d="M439.8 491.2h-14.3c-1.3.1-2.5-.9-2.6-2.3s.9-2.5 2.3-2.6h14.6c1.4.1 2.4 1.3 2.3 2.6-.1 1.2-1.1 2.2-2.3 2.3zm35.4-.7c-1.4 0-2.4-1.1-2.4-2.5 0-.6.3-1.3.7-1.7.1-.1.2-.2.4-.3.1-.1.3-.2.4-.2.1-.1.3-.1.5-.1.3-.1.7-.1 1 0 .2 0 .3.1.5.1.1.1.3.1.4.2.1.1.3.2.4.3.1.1.2.2.3.4.1.1.2.3.2.4.1.1.1.3.1.5.1.8-.1 1.6-.7 2.2-.1.1-.2.2-.4.3-.1.1-.3.2-.4.2-.1.1-.3.1-.5.1-.1 0-.3.1-.5.1zm7.2-7.5c-.6 0-1.3-.3-1.7-.7-.1-.1-.2-.2-.3-.4-.1-.1-.2-.3-.2-.4-.1-.2-.1-.3-.1-.5v-.5c0-.6.3-1.3.7-1.7 1-1 2.5-1 3.5 0 .5.5.7 1.1.7 1.7v.5c0 .2-.1.3-.1.5-.1.1-.1.3-.2.4-.1.1-.2.3-.3.4-.7.5-1.3.7-2 .7zm7.5 7.5c-.6 0-1.3-.3-1.7-.7-.1-.1-.2-.2-.3-.4-.1-.1-.2-.3-.2-.4-.1-.1-.1-.3-.1-.5v-1c0-.2.1-.3.1-.5.1-.2.1-.3.2-.4.1-.1.2-.3.3-.4.6-.6 1.4-.8 2.2-.7.2 0 .3.1.5.1.2.1.3.1.4.2.1.1.3.2.4.3.1.1.2.2.3.4.1.1.2.3.2.4.1.1.1.3.1.5.1.8-.1 1.6-.7 2.2-.1.1-.2.2-.4.3-.1.1-.3.2-.4.2-.1.1-.3.1-.5.1-.1.2-.3.3-.4.3zm-7.5 7.5c-.6 0-1.3-.3-1.7-.7-.1-.1-.2-.2-.3-.4-.1-.1-.2-.3-.2-.4-.1-.2-.1-.3-.1-.5v-1c0-.2.1-.3.1-.5.1-.1.1-.3.2-.4.1-.1.2-.3.3-.4.6-.6 1.4-.8 2.2-.7.2 0 .3.1.5.1.2.1.3.1.4.2.1.1.3.2.4.3.1.1.2.2.3.4.1.1.2.3.2.4.4.9.2 2-.5 2.7-.1.1-.2.2-.4.3-.1.1-.3.2-.4.2-.1.1-.3.1-.5.1-.2.3-.4.3-.5.3z"/><path class="st1" d="M-76.1 57.6c.3.1.8.3 1.2.4l.5.2.6.2c1.3.5 2.5 1 3.9 1.5l1.5.5c.5.2 1.1.3 1.7.4s1.3.3 1.9.4l.7.1.5.1 1.1.2c.4 1.9 1.3 3.7 2.5 5.2 1.5 1.9 3.6 3.4 5.9 4.3 1.1.4 2.3.7 3.5.9.3 0 .6 0 .9.1h9.5c1 0 2-.1 3-.1 2.1-.1 4.2-.1 6.2.2.8 0 1.5-.1 2.2 0 2.6.1 5.3.1 7.9-.1 2-.2 4 .1 6 .1 1 0 1.8-.1 1.5-.5.2-.1.4-.2.7-.2h4.3c2.3-.2 4.4-1 6.3-2.3.9-.7 1.8-1.5 2.5-2.4.9-1.1 1.4-2.9 1.1-2.5l-1.6 1.8c-.9.7-1.9 1.5-2.9 2.2-.7.4-1.6.4-1.3 0l.6-.6c2.2-1.3 3.8-3.3 4.5-5.8.1-.3.2-.6.4-.9.2-.5.4-1 .4-1.5.1-.5.1-1.2.1-1.5-.1-1 .1-2 .4-2.9.2-.5.2-1.1.2-1.7-.1-1.6 0-3.2.2-4.8.1-.9 0-1.7-.4-2.5-.3-.7-.2-1.4.2-1.4s.6-.7.6-1.6v-6.8c0-.8-.2-1.5-.7-2.2-.2-.3-.2-.8 0-1.1.1-.2.4.1.4-.6 0-.2-.1-.4-.3-.5-.4-.6-.5-1.3-.3-1.9.1-1.7-.2-3.4-1-5s-1.9-2.9-3.3-4c-.3-.3-.7-.4-1.1-.5-.2 0-.1.3.2.5.8.8 1.6 1.7 2.2 2.7.4.6.8 1.2 1 1.8.1.5 0 .8-.1.8s-.7-.3-.9-.6c-.4-.5-.7-1-1-1.6-.2-.5-.7-.8-1.2-1-.3 0-.1.3 0 .5s.3.6.5.9c-.3-.1-.7-.2-.9-.4-.9-.6-1.9-1.1-2.9-1.5-.8-.4-1.6-.6-2.5-.7-.2 0-.4 0-.6.1-.1.1 0 .2.1.2.5.1 1 .2 1.5.4.4.1.7.3 1 .5.1.1 0 .2-.2.4-.8-.3-1.6-.4-2.5-.4h-.4c.1-.3-.4-.5-1.4-.6-.5 0-1 0-1.5-.1-.7-.1-1.3-.2-1.9-.4-.7-.3.4-.5.4-.7.1-.6 1.1-1 2.5-1.2.8-.1 1.6-.5 2.2-1 .1-.1 0-.3-.2-.3-.9-.3-2.6 0-3-.6s-2.1-.5-2.5-1c-.4-.1-.8-.2-1.2-.2-2.1-.1-4.2-.1-6.3.1-1.1.2-2.3.1-3.4-.3-.8-.4-1.6-.4-2.5-.2h-1.5c-.6.1-1.2 0-1.7-.3-.3-.2-.7-.3-1.1-.1-.8.4-1.7.4-2.6.2-1.2-.2-2.4-.3-3.7-.2h-10.9c-.5 0-.9.1-1.3.2-2.9.6-5.6 2-7.6 4.2-2.4 2.6-3.7 5.9-3.8 9.5v4.4c0 1.4 0 2.9-.2 4.3-.1 1.7-.1 3.5.2 5.2.1.9.1 1.7.1 2.6v7.8c-.5.3-1.1.5-1.7.8-.4.1-.5.2-1.4.5s-2 .5-3 .8c-.8.2-1.8.4-2.8.5s-2 .4-3 .5l-1.2.1zM.8 31.2l.1-.3c0 .1.1.2.1.2 0 .1-.1.2-.1.3l-.1-.2zM0 29.3c0-.3 0-.5.1-.8.1.4.2.7.3 1.1v.4l-.4-.7zm-1.1 33.4l.1-.2c.1-.2.3-.4.4-.5-.1.2-.3.4-.4.6l-.1.1zm-3.4-37.6c0-.1.1-.1.2-.2.2.1.4.1.6.2.1.2.2.3.3.5-.1.5.4 1.4.4 2.1-.2-.7-.6-1.4-1-1.9-.2-.2-.3-.4-.5-.7zM-17 70.9c-.1 0 .1-.1.1-.2l.5.2-.1.1c-.2 0-.3 0-.5-.1z"/><path d="M-13.8 188.8c-8.5 0-15.4-6.9-15.4-15.4 0-1.4 1.1-2.4 2.5-2.4s2.4 1.1 2.5 2.4c0 5.8 4.7 10.5 10.5 10.5s10.5-4.7 10.5-10.5-4.7-10.5-10.5-10.5h-68.1c-5.8 0-10.5 4.7-10.5 10.5s4.7 10.5 10.5 10.5 10.5-4.7 10.5-10.5c0-1.3 1.1-2.4 2.4-2.4 1.4 0 2.4 1.1 2.4 2.4 0 8.5-6.9 15.4-15.4 15.4s-15.4-6.9-15.4-15.4 6.9-15.4 15.5-15.4h68.1c8.5 0 15.4 6.9 15.4 15.4-.1 8.5-7 15.4-15.5 15.4z"/><path class="st1" d="M-35.8 486.9l-.1-.2h-13.5c-3.3 6.3-9.8 10.2-16.9 10.2-8.4 0-15.8-5.5-18.3-13.5-.8 2.7-1.1 5.6-.7 8.4 1.2 8.5 8 15.2 16.6 16.2 7.9 1 15.6-3.1 19.3-10.1h13.5c3.3 6.3 9.8 10.2 16.9 10.2C-8.4 508.1.1 499.6.2 489v-1.6c-.7-10-9.1-17.8-19.2-17.7v12.7c0 9.3-12.4 12.6-16.8 4.5z"/><path d="M-19 510.3c-7.5 0-14.4-3.9-18.4-10.2H-48c-3.9 6.4-10.9 10.3-18.4 10.2-11.9 0-21.6-9.7-21.6-21.6 0-11.9 9.7-21.6 21.6-21.6H-19c11.9 0 21.6 9.7 21.6 21.6 0 12-9.7 21.6-21.6 21.6zm-30.4-15.1h13.5c.9 0 1.7.5 2.2 1.3 2.9 5.5 8.6 8.9 14.8 8.9 9.2 0 16.7-7.5 16.7-16.7S-9.7 472-18.9 472h-47.3c-9.2 0-16.7 7.5-16.7 16.7s7.5 16.7 16.7 16.7c6.2 0 11.9-3.4 14.8-8.9.3-.8 1.1-1.3 2-1.3z"/><path class="st1" d="M119.7 578l30.2-56.9h-14.6l-.3.6 8.4-30H131l-8 28.8c-.6 2 .6 4.2 2.6 4.7.3.1.7.1 1 .1h2c1.7 0 3 1.3 3.1 2.9 0 .5-.1.9-.3 1.4l-9.8 21.4-1.9 27z"/><path d="M119.7 580.5c-.2 0-.5 0-.7-.1-1.1-.3-1.8-1.4-1.8-2.5l2.5-36.3h-8.4c-1.4 0-2.4-1.1-2.4-2.5v-.1l2.7-47.3c.1-1.3 1.1-2.3 2.4-2.3h29.4c1.4 0 2.4 1.1 2.4 2.5 0 .2 0 .4-.1.6l-7.3 26.3h11.4c1.4 0 2.4 1.1 2.4 2.5 0 .4-.1.8-.3 1.1l-30.2 56.9c-.3.7-1.1 1.2-2 1.2zm-5.8-43.9h8.5c1.4 0 2.4 1.1 2.4 2.5v.2l-1.9 27.5 22.9-43.1h-10.6c-1.4 0-2.4-1.1-2.4-2.5 0-.2 0-.4.1-.6l7.3-26.3h-23.8l-2.5 42.3z"/><path class="st1" d="M193.4 504.1l.2-.1v-1c0-7.4-6-13.3-13.3-13.3-4.4 0-8.4 2.1-10.9 5.7 7.2.2 12.9 6.1 12.9 13.3v1l-.2.1c7.4.1 13.2 6.1 13.2 13.4 0 2.7-.9 5.3-2.4 7.6h.4c7.4 0 13.4-5.9 13.4-13.2 0-7.4-5.9-13.4-13.3-13.5z"/><path d="M195.1 532.5h-23.8c-8.7 0-15.8-7-15.8-15.8 0-6.8 4.4-12.9 10.9-15 .3-8.7 7.7-15.5 16.4-15.2 8 .3 14.6 6.6 15.1 14.7 8.6 1.6 14.2 9.8 12.7 18.4-1.4 7.5-7.9 12.9-15.5 12.9zm-26-26.4c-5.9 1.2-9.7 7-8.4 12.9 1.1 5 5.5 8.6 10.6 8.7h23.8c6 0 10.9-4.9 10.9-10.9s-4.9-10.9-10.9-10.9c-2.2 0-4.4.7-6.3 2-1.2.7-2.7.3-3.4-.8-.6-1-.4-2.4.6-3.2 2.1-1.5 4.5-2.4 7-2.7-.7-6-6.1-10.2-12.1-9.5-5.4.7-9.5 5.2-9.6 10.7 0 .4 0 .7.1 1.1.1 1.3-.8 2.5-2.2 2.7l-.1-.1z"/><path class="st1" d="M46.6-29.7H13.9v19.2h3.6v.4c0 7 5.7 12.7 12.7 12.8C37.2 2.7 43-3 43-10.1v-.4h3.6v-19.2z"/><path d="M30.2 3.8c-7.9 0-14.3-6.4-14.4-14.4 0-1.4 1.1-2.5 2.4-2.5 1.4 0 2.5 1.1 2.5 2.4 0 5.2 4.2 9.5 9.5 9.5 5.2 0 9.5-4.2 9.5-9.5 0-1.4 1.1-2.5 2.4-2.5 1.4 0 2.5 1.1 2.5 2.4 0 8.2-6.4 14.6-14.4 14.6.1 0 .1 0 0 0z" id="_Group_16"/><path class="st1" d="M464-13.2l-.1-.2h-13.4c-3.3 6.3-9.8 10.3-16.9 10.2-8.4 0-15.8-5.5-18.3-13.5-.8 2.7-1.1 5.6-.7 8.4 1.2 8.5 8 15.2 16.6 16.2 7.9 1 15.6-3 19.3-10.1H464C467.3 4.1 473.9 8 481 8c10.5 0 19.1-8.6 19.1-19.1v-1.6c-.7-10-9-17.7-19-17.7v12.7c-.2 9.4-12.7 12.7-17.1 4.5z"/><path d="M480.9 10.3c-7.5 0-14.5-3.9-18.4-10.3h-10.6C448 6.4 441 10.3 433.5 10.2c-11.9 0-21.5-9.7-21.5-21.5 0-11.9 9.7-21.6 21.6-21.6h47.3c11.9 0 21.6 9.7 21.6 21.6 0 11.9-9.7 21.6-21.6 21.6zM450.5-4.9H464c.9 0 1.7.5 2.2 1.3 2.9 5.5 8.6 8.9 14.8 8.9 9.2 0 16.7-7.5 16.7-16.7s-7.5-16.7-16.7-16.7h-47.3c-9.2 0-16.7 7.5-16.7 16.7s7.5 16.7 16.7 16.7c6.2 0 11.9-3.4 14.8-8.9.3-.8 1.1-1.3 2-1.3zm164.3 405.6c-1.4 0-2.5-1.1-2.5-2.4v-6c0-7.2-5.9-13.1-13.1-13.1h-87.1c-17.3-.3-31.1-14.6-30.8-31.9.3-16.9 13.9-30.5 30.8-30.8h50.4c1.4.1 2.4 1.3 2.3 2.6-.1 1.2-1.1 2.2-2.3 2.3h-50.4c-14.6 0-26.5 11.9-26.5 26.5s11.9 26.5 26.5 26.5h87.2c9.9 0 18 8.1 18 18v6c0 1.3-1.1 2.3-2.5 2.3z"/><path d="M546.5 472.8h-32.8c-1.3 0-2.4-1.1-2.4-2.5-.1-8.4-3.3-16.4-9.1-22.5-14.3-15.4-13.5-39.6 2-53.9 15.4-14.3 39.6-13.5 53.9 2 13.6 14.6 13.6 37.3 0 51.9-5.8 6.1-9 14.1-9.1 22.5 0 1.4-1.1 2.5-2.5 2.5zm-30.3-4.9h28c.6-8.7 4.3-17 10.3-23.4 12.5-13.4 11.7-34.5-1.7-47s-34.5-11.7-47 1.7c-11.8 12.8-11.8 32.5 0 45.2 6 6.5 9.7 14.7 10.4 23.5z" id="_Group_17"/><path class="st1" d="M578.9 136.5v8.2h-81.8v-6.2l2.1-9.1 14.5-11.2s10.6 6.2 10.9 18.2h19.6c11.9 0 21.6-9.7 21.6-21.6l10.7-7.5 2.4 29.2"/><path d="M576.9 147.1h-82.6c-1.4 0-2.5-1.1-2.5-2.4v-5.8c0-7.9 4.7-15 12-18l23.8-9.8c.8-4.5 4.7-7.7 9.3-7.7h3.9c1.4 0 2.5 1.1 2.5 2.4 0 4.5 3.7 8.2 8.2 8.2h8.9c.3 0 .5-.1.6-.4l.8-1.5c2.5-4.6 7.4-7.5 12.6-7.3 2.7.1 4.8 2.3 4.8 4.9v34.9c.1 1.4-1 2.5-2.3 2.5zm-80.2-4.8h77.7v-32.4c-3.4-.1-6.6 1.7-8.2 4.7l-.8 1.5c-1 1.8-2.9 2.9-4.9 2.9h-8.8c-6.3.1-11.8-4.4-13-10.7H537c-2.5 0-4.5 2-4.5 4.6 0 1-.6 1.9-1.5 2.3l-25.1 10.3c-5.5 2.2-9 7.6-9 13.5l-.2 3.3z"/><path d="M576.9 153.8h-82.6c-1.4 0-2.5-1.1-2.5-2.4v-6.7c.1-1.4 1.3-2.4 2.6-2.3 1.2.1 2.2 1.1 2.3 2.3v4.2h77.7v-4.2c.1-1.4 1.3-2.4 2.6-2.3 1.2.1 2.2 1.1 2.3 2.3v6.7c0 1.3-1.1 2.4-2.4 2.4z"/></g></svg>